# boxer - generated by tools/export_models.py
# 1010 vertices, 1116 triangles
mtllib boxer.mtl
o boxer
v -0.25000 0.69785 -0.15000
v 0.25000 0.69785 -0.15000
v 0.25000 0.99785 -0.15000
v -0.25000 0.99785 -0.15000
v -0.25000 0.69785 0.15000
v 0.25000 0.69785 0.15000
v 0.25000 0.99785 0.15000
v -0.25000 0.99785 0.15000
v -0.26000 0.94285 -0.16000
v 0.26000 0.94285 -0.16000
v 0.26000 1.01285 -0.16000
v -0.26000 1.01285 -0.16000
v -0.26000 0.94285 0.16000
v 0.26000 0.94285 0.16000
v 0.26000 1.01285 0.16000
v -0.26000 1.01285 0.16000
v -0.18963 0.69562 -0.15361
v 0.24404 0.69562 -0.00021
v 0.26392 0.98964 -0.05640
v -0.16975 0.98964 -0.20980
v -0.28114 0.75125 0.10510
v 0.15253 0.75125 0.25850
v 0.17240 1.04526 0.20231
v -0.26127 1.04526 0.04891
v -0.20638 1.04447 -0.25619
v 0.32157 1.04447 -0.06944
v 0.34939 1.45610 -0.14811
v -0.17855 1.45610 -0.33486
v -0.31097 1.10804 0.03947
v 0.21698 1.10804 0.22623
v 0.24480 1.51967 0.14756
v -0.28314 1.51967 -0.03919
v -0.15486 1.43848 -0.31187
v 0.31652 1.43848 -0.14512
v 0.32314 1.53649 -0.16385
v -0.14824 1.53649 -0.33060
v -0.25291 1.49808 -0.03468
v 0.21846 1.49808 0.13206
v 0.22509 1.59609 0.11333
v -0.24629 1.59609 -0.05341
v 0.10913 1.56629 -0.08362
v 0.05255 1.57919 -0.03611
v -0.01816 1.57919 -0.06112
v -0.03228 1.56629 -0.13364
v 0.02430 1.55338 -0.18115
v 0.09501 1.55338 -0.15614
v 0.11576 1.66430 -0.10235
v 0.05918 1.67720 -0.05484
v -0.01153 1.67720 -0.07985
v -0.02565 1.66430 -0.15237
v 0.03093 1.65139 -0.19988
v 0.10163 1.65139 -0.17487
v 0.03843 1.56629 -0.10863
v 0.04505 1.66430 -0.12736
v -0.05618 1.64989 -0.28015
v 0.19819 1.64289 -0.22681
v 0.21450 1.93992 -0.26562
v -0.03987 1.94693 -0.31896
v -0.10809 1.68570 -0.02791
v 0.14629 1.67870 0.02543
v 0.16260 1.97573 -0.01338
v -0.09177 1.98273 -0.06672
v -0.04848 1.89824 -0.30866
v 0.21568 1.89097 -0.25328
v 0.22112 1.98998 -0.26621
v -0.04304 1.99725 -0.32160
v -0.09838 1.93267 -0.06613
v 0.16577 1.92540 -0.01074
v 0.17121 2.02441 -0.02367
v -0.09295 2.03168 -0.07906
v -0.08797 1.81703 -0.05787
v 0.00987 1.81434 -0.03736
v 0.01259 1.86384 -0.04383
v -0.08525 1.86653 -0.06434
v -0.09395 1.82116 -0.02877
v 0.00388 1.81847 -0.00826
v 0.00660 1.86797 -0.01472
v -0.09124 1.87067 -0.03524
v 0.04900 1.81326 -0.02915
v 0.14684 1.81056 -0.00864
v 0.14956 1.86007 -0.01511
v 0.05172 1.86276 -0.03562
v 0.04302 1.81739 -0.00005
v 0.14085 1.81470 0.02046
v 0.14357 1.86420 0.01400
v 0.04574 1.86689 -0.00652
v -0.25603 1.43429 0.09583
v -0.29628 1.48536 0.09379
v -0.35817 1.49446 0.07592
v -0.40543 1.45627 0.05267
v -0.41038 1.39316 0.03767
v -0.37012 1.34210 0.03971
v -0.30824 1.33300 0.05759
v -0.26098 1.37118 0.08083
v -0.19925 1.47199 -0.08153
v -0.23951 1.52305 -0.08356
v -0.30139 1.53215 -0.10144
v -0.34865 1.49396 -0.12469
v -0.35360 1.43085 -0.13968
v -0.31335 1.37979 -0.13765
v -0.25146 1.37069 -0.11977
v -0.20420 1.40888 -0.09652
v -0.25102 1.46828 -0.18995
v -0.21584 1.47631 -0.16478
v -0.23597 1.50184 -0.16580
v -0.26691 1.50639 -0.17474
v -0.29054 1.48730 -0.18636
v -0.29302 1.45574 -0.19386
v -0.27289 1.43021 -0.19284
v -0.24194 1.42566 -0.18390
v -0.21831 1.44475 -0.17228
v -0.19689 1.47766 -0.12509
v -0.23175 1.52188 -0.12686
v -0.28535 1.52977 -0.14234
v -0.32628 1.49670 -0.16247
v -0.33056 1.44204 -0.17546
v -0.29570 1.39782 -0.17370
v -0.24210 1.38993 -0.15821
v -0.20117 1.42301 -0.13808
v -0.19925 1.47199 -0.08153
v -0.23951 1.52305 -0.08356
v -0.30139 1.53215 -0.10144
v -0.34865 1.49396 -0.12469
v -0.35360 1.43085 -0.13968
v -0.31335 1.37979 -0.13765
v -0.25146 1.37069 -0.11977
v -0.20420 1.40888 -0.09652
v -0.22229 1.46080 -0.04575
v -0.25715 1.50502 -0.04751
v -0.31075 1.51291 -0.06300
v -0.35168 1.47983 -0.08313
v -0.35596 1.42518 -0.09612
v -0.32110 1.38096 -0.09435
v -0.26751 1.37307 -0.07887
v -0.22658 1.40614 -0.05874
v -0.25983 1.44710 -0.02735
v -0.27996 1.47263 -0.02837
v -0.31091 1.47718 -0.03731
v -0.33454 1.45809 -0.04893
v -0.33701 1.42653 -0.05643
v -0.31688 1.40100 -0.05541
v -0.28594 1.39645 -0.04647
v -0.26231 1.41555 -0.03485
v -0.30183 1.43456 -0.03126
v -0.30780 1.43059 -0.01259
v -0.27262 1.43861 0.01258
v -0.29275 1.46415 0.01156
v -0.32369 1.46870 0.00262
v -0.34732 1.44960 -0.00900
v -0.34980 1.41805 -0.01650
v -0.32967 1.39252 -0.01548
v -0.29872 1.38797 -0.00654
v -0.27509 1.40706 0.00508
v -0.25367 1.43997 0.05226
v -0.28853 1.48419 0.05050
v -0.34212 1.49208 0.03502
v -0.38305 1.45900 0.01489
v -0.38734 1.40435 0.00190
v -0.35248 1.36013 0.00366
v -0.29888 1.35224 0.01914
v -0.25795 1.38532 0.03928
v -0.25603 1.43429 0.09583
v -0.29628 1.48536 0.09379
v -0.35817 1.49446 0.07592
v -0.40543 1.45627 0.05267
v -0.41038 1.39316 0.03767
v -0.37012 1.34210 0.03971
v -0.30824 1.33300 0.05759
v -0.26098 1.37118 0.08083
v -0.27907 1.42311 0.13161
v -0.31393 1.46733 0.12984
v -0.36753 1.47521 0.11436
v -0.40846 1.44214 0.09423
v -0.41274 1.38749 0.08124
v -0.37788 1.34327 0.08301
v -0.32428 1.33538 0.09849
v -0.28335 1.36845 0.11862
v -0.31661 1.40941 0.15001
v -0.33674 1.43494 0.14899
v -0.36769 1.43949 0.14005
v -0.39132 1.42040 0.12843
v -0.39379 1.38884 0.12093
v -0.37366 1.36331 0.12195
v -0.34272 1.35876 0.13088
v -0.31909 1.37785 0.14251
v -0.35861 1.39687 0.14610
v -0.28494 1.65869 -0.00659
v -0.28258 1.62324 -0.05456
v -0.32309 1.59750 -0.09007
v -0.38274 1.59655 -0.09230
v -0.42659 1.62094 -0.05995
v -0.42895 1.65639 -0.01198
v -0.38844 1.68213 0.02353
v -0.32879 1.68308 0.02576
v -0.28705 1.47849 0.12645
v -0.28469 1.44304 0.07848
v -0.32520 1.41730 0.04297
v -0.38485 1.41635 0.04074
v -0.42869 1.44074 0.07309
v -0.43106 1.47619 0.12106
v -0.39055 1.50193 0.15657
v -0.33090 1.50288 0.15880
v -0.35861 1.39687 0.14610
v -0.32310 1.41471 0.15323
v -0.32192 1.39699 0.12924
v -0.34217 1.38412 0.11149
v -0.37199 1.38364 0.11038
v -0.39392 1.39584 0.12655
v -0.39510 1.41356 0.15054
v -0.37484 1.42643 0.16829
v -0.34502 1.42691 0.16940
v -0.29690 1.44458 0.14604
v -0.29486 1.41389 0.10449
v -0.32994 1.39160 0.07375
v -0.38160 1.39077 0.07181
v -0.41957 1.41190 0.09982
v -0.42162 1.44260 0.14137
v -0.38654 1.46489 0.17212
v -0.33488 1.46571 0.17405
v -0.28705 1.47849 0.12645
v -0.28469 1.44304 0.07848
v -0.32520 1.41730 0.04297
v -0.38485 1.41635 0.04074
v -0.42869 1.44074 0.07309
v -0.43106 1.47619 0.12106
v -0.39055 1.50193 0.15657
v -0.33090 1.50288 0.15880
v -0.29617 1.50733 0.09972
v -0.29413 1.47663 0.05817
v -0.32921 1.45434 0.02742
v -0.38087 1.45352 0.02549
v -0.41884 1.47465 0.05350
v -0.42088 1.50534 0.09505
v -0.38580 1.52763 0.12579
v -0.33414 1.52846 0.12773
v -0.32183 1.52339 0.07299
v -0.32064 1.50567 0.04900
v -0.34090 1.49280 0.03125
v -0.37072 1.49232 0.03014
v -0.39265 1.50452 0.04631
v -0.39383 1.52224 0.07030
v -0.37357 1.53511 0.08805
v -0.34375 1.53559 0.08917
v -0.35714 1.52236 0.05344
v -0.35650 1.57707 0.01306
v -0.32099 1.59491 0.02019
v -0.31981 1.57719 -0.00380
v -0.34006 1.56432 -0.02155
v -0.36989 1.56384 -0.02266
v -0.39181 1.57604 -0.00649
v -0.39299 1.59376 0.01750
v -0.37274 1.60663 0.03525
v -0.34291 1.60711 0.03637
v -0.29480 1.62479 0.01300
v -0.29275 1.59409 -0.02855
v -0.32783 1.57180 -0.05929
v -0.37949 1.57097 -0.06123
v -0.41747 1.59210 -0.03321
v -0.41951 1.62280 0.00833
v -0.38443 1.64509 0.03908
v -0.33277 1.64591 0.04102
v -0.28494 1.65869 -0.00659
v -0.28258 1.62324 -0.05456
v -0.32309 1.59750 -0.09007
v -0.38274 1.59655 -0.09230
v -0.42659 1.62094 -0.05995
v -0.42895 1.65639 -0.01198
v -0.38844 1.68213 0.02353
v -0.32879 1.68308 0.02576
v -0.29406 1.68753 -0.03332
v -0.29202 1.65683 -0.07487
v -0.32710 1.63454 -0.10562
v -0.37876 1.63372 -0.10755
v -0.41673 1.65485 -0.07954
v -0.41878 1.68554 -0.03799
v -0.38370 1.70783 -0.00724
v -0.33204 1.70866 -0.00531
v -0.31972 1.70359 -0.06005
v -0.31854 1.68587 -0.08403
v -0.33879 1.67300 -0.10179
v -0.36862 1.67252 -0.10290
v -0.39054 1.68472 -0.08673
v -0.39172 1.70245 -0.06274
v -0.37147 1.71531 -0.04499
v -0.34164 1.71579 -0.04387
v -0.35503 1.70256 -0.07959
v -0.35611 1.61005 -0.01129
v -0.28382 1.64999 0.00054
v -0.27931 1.61783 -0.04295
v -0.31062 1.59173 -0.07880
v -0.36311 1.58391 -0.09022
v -0.41221 1.59803 -0.07188
v -0.43494 1.62747 -0.03235
v -0.42068 1.65847 0.00986
v -0.37609 1.67652 0.03501
v -0.32204 1.67317 0.03133
v -0.23866 1.71616 -0.02277
v -0.23136 1.66412 -0.09314
v -0.28202 1.62189 -0.15114
v -0.36695 1.60924 -0.16962
v -0.44639 1.63208 -0.13995
v -0.48318 1.67972 -0.07599
v -0.46010 1.72988 -0.00769
v -0.38796 1.75908 0.03300
v -0.30050 1.75366 0.02705
v -0.23787 1.78328 -0.07233
v -0.23057 1.73124 -0.14270
v -0.28124 1.68901 -0.20069
v -0.36616 1.67636 -0.21918
v -0.44560 1.69920 -0.18950
v -0.48239 1.74684 -0.12555
v -0.45932 1.79700 -0.05725
v -0.38717 1.82620 -0.01655
v -0.29972 1.82078 -0.02251
v -0.28177 1.82571 -0.12919
v -0.27726 1.79355 -0.17269
v -0.30857 1.76746 -0.20853
v -0.36105 1.75964 -0.21995
v -0.41015 1.77375 -0.20161
v -0.43289 1.80320 -0.16209
v -0.41863 1.83420 -0.11987
v -0.37404 1.85224 -0.09472
v -0.31999 1.84889 -0.09840
v -0.35357 1.82726 -0.17165
v -0.46170 1.68236 -0.01604
v -0.31642 1.72107 0.03869
v -0.31727 1.64867 0.09215
v -0.46255 1.60996 0.03741
v -0.39467 1.59556 -0.13255
v -0.24940 1.63427 -0.07781
v -0.25024 1.56187 -0.02436
v -0.39552 1.52316 -0.07910
v 0.29541 1.39316 0.28734
v 0.28213 1.45627 0.29589
v 0.23077 1.49446 0.28425
v 0.17141 1.48536 0.25923
v 0.13882 1.43429 0.23550
v 0.15210 1.37118 0.22696
v 0.20347 1.33300 0.23860
v 0.26283 1.34210 0.26361
v 0.36278 1.43085 0.11373
v 0.34950 1.49396 0.12228
v 0.29814 1.53215 0.11064
v 0.23878 1.52305 0.08562
v 0.20619 1.47199 0.06189
v 0.21947 1.40888 0.05335
v 0.27084 1.37069 0.06499
v 0.33020 1.37979 0.09000
v 0.31463 1.46828 0.01014
v 0.34974 1.45574 0.03351
v 0.34310 1.48730 0.03778
v 0.31742 1.50639 0.03196
v 0.28773 1.50184 0.01946
v 0.27144 1.47631 0.00759
v 0.27808 1.44475 0.00332
v 0.30377 1.42566 0.00914
v 0.33345 1.43021 0.02164
v 0.36736 1.44204 0.07142
v 0.35586 1.49670 0.07883
v 0.31138 1.52977 0.06874
v 0.25997 1.52188 0.04708
v 0.23175 1.47766 0.02653
v 0.24325 1.42301 0.01913
v 0.28774 1.38993 0.02921
v 0.33915 1.39782 0.05087
v 0.36278 1.43085 0.11373
v 0.34950 1.49396 0.12228
v 0.29814 1.53215 0.11064
v 0.23878 1.52305 0.08562
v 0.20619 1.47199 0.06189
v 0.21947 1.40888 0.05335
v 0.27084 1.37069 0.06499
v 0.33020 1.37979 0.09000
v 0.33722 1.42518 0.14909
v 0.32572 1.47983 0.15649
v 0.28124 1.51291 0.14641
v 0.22983 1.50502 0.12475
v 0.20161 1.46080 0.10420
v 0.21311 1.40614 0.09680
v 0.25760 1.37307 0.10688
v 0.30901 1.38096 0.12854
v 0.29753 1.42653 0.16803
v 0.29089 1.45809 0.17231
v 0.26521 1.47718 0.16649
v 0.23553 1.47263 0.15398
v 0.21924 1.44710 0.14211
v 0.22588 1.41555 0.13784
v 0.25156 1.39645 0.14366
v 0.28124 1.40100 0.15617
v 0.25435 1.43456 0.16548
v 0.24726 1.43059 0.18375
v 0.28237 1.41805 0.20712
v 0.27573 1.44960 0.21139
v 0.25004 1.46870 0.20557
v 0.22036 1.46415 0.19307
v 0.20407 1.43861 0.18120
v 0.21071 1.40706 0.17693
v 0.23639 1.38797 0.18275
v 0.26607 1.39252 0.19525
v 0.29999 1.40435 0.24503
v 0.28849 1.45900 0.25244
v 0.24401 1.49208 0.24235
v 0.19260 1.48419 0.22069
v 0.16438 1.43997 0.20014
v 0.17588 1.38532 0.19274
v 0.22037 1.35224 0.20282
v 0.27177 1.36013 0.22448
v 0.29541 1.39316 0.28734
v 0.28213 1.45627 0.29589
v 0.23077 1.49446 0.28425
v 0.17141 1.48536 0.25923
v 0.13882 1.43429 0.23550
v 0.15210 1.37118 0.22696
v 0.20347 1.33300 0.23860
v 0.26283 1.34210 0.26361
v 0.26985 1.38749 0.32270
v 0.25835 1.44214 0.33010
v 0.21387 1.47521 0.32002
v 0.16246 1.46733 0.29836
v 0.13424 1.42311 0.27781
v 0.14574 1.36845 0.27041
v 0.19023 1.33538 0.28049
v 0.24163 1.34327 0.30215
v 0.23016 1.38884 0.34164
v 0.22352 1.42040 0.34592
v 0.19784 1.43949 0.34010
v 0.16816 1.43494 0.32759
v 0.15187 1.40941 0.31572
v 0.15851 1.37785 0.31145
v 0.18419 1.35876 0.31727
v 0.21387 1.36331 0.32978
v 0.18698 1.39687 0.33909
v 0.36940 1.62094 0.22162
v 0.35564 1.59655 0.16890
v 0.30786 1.59750 0.13312
v 0.25404 1.62324 0.13526
v 0.22570 1.65869 0.17405
v 0.23946 1.68308 0.22677
v 0.28725 1.68213 0.26254
v 0.34107 1.65639 0.26041
v 0.28738 1.44074 0.32639
v 0.27363 1.41635 0.27367
v 0.22584 1.41730 0.23790
v 0.17202 1.44304 0.24003
v 0.14369 1.47849 0.27882
v 0.15744 1.50288 0.33154
v 0.20523 1.50193 0.36732
v 0.25905 1.47619 0.36518
v 0.18698 1.39687 0.33909
v 0.22673 1.39584 0.34609
v 0.21985 1.38364 0.31973
v 0.19596 1.38412 0.30185
v 0.16905 1.39699 0.30291
v 0.15488 1.41471 0.32231
v 0.16176 1.42691 0.34867
v 0.18565 1.42643 0.36656
v 0.21256 1.41356 0.36549
v 0.26348 1.41190 0.34145
v 0.25157 1.39077 0.29579
v 0.21018 1.39160 0.26481
v 0.16357 1.41389 0.26666
v 0.13903 1.44458 0.30025
v 0.15095 1.46571 0.34591
v 0.19233 1.46489 0.37689
v 0.23894 1.44260 0.37504
v 0.28738 1.44074 0.32639
v 0.27363 1.41635 0.27367
v 0.22584 1.41730 0.23790
v 0.17202 1.44304 0.24003
v 0.14369 1.47849 0.27882
v 0.15744 1.50288 0.33154
v 0.20523 1.50193 0.36732
v 0.25905 1.47619 0.36518
v 0.29204 1.47465 0.30496
v 0.28013 1.45352 0.25930
v 0.23874 1.45434 0.22832
v 0.19213 1.47663 0.23017
v 0.16759 1.50733 0.26377
v 0.17951 1.52846 0.30943
v 0.22089 1.52763 0.34040
v 0.26750 1.50534 0.33856
v 0.27619 1.50452 0.28290
v 0.26932 1.49232 0.25654
v 0.24542 1.49280 0.23866
v 0.21851 1.50567 0.23972
v 0.20435 1.52339 0.25912
v 0.21122 1.53559 0.28548
v 0.23512 1.53511 0.30337
v 0.26203 1.52224 0.30230
v 0.24410 1.52236 0.26612
v 0.26899 1.57707 0.23432
v 0.30874 1.57604 0.24132
v 0.30187 1.56384 0.21496
v 0.27797 1.56432 0.19707
v 0.25106 1.57719 0.19814
v 0.23690 1.59491 0.21754
v 0.24377 1.60711 0.24390
v 0.26767 1.60663 0.26178
v 0.29458 1.59376 0.26072
v 0.34550 1.59210 0.23667
v 0.33358 1.57097 0.19101
v 0.29220 1.57180 0.16004
v 0.24559 1.59409 0.16188
v 0.22105 1.62479 0.19548
v 0.23296 1.64591 0.24114
v 0.27435 1.64509 0.27212
v 0.32096 1.62280 0.27027
v 0.36940 1.62094 0.22162
v 0.35564 1.59655 0.16890
v 0.30786 1.59750 0.13312
v 0.25404 1.62324 0.13526
v 0.22570 1.65869 0.17405
v 0.23946 1.68308 0.22677
v 0.28725 1.68213 0.26254
v 0.34107 1.65639 0.26041
v 0.37405 1.65485 0.20019
v 0.36214 1.63372 0.15453
v 0.32076 1.63454 0.12355
v 0.27415 1.65683 0.12540
v 0.24961 1.68753 0.15899
v 0.26152 1.70866 0.20465
v 0.30291 1.70783 0.23563
v 0.34952 1.68554 0.23378
v 0.35821 1.68472 0.17813
v 0.35133 1.67252 0.15177
v 0.32744 1.67300 0.13388
v 0.30053 1.68587 0.13495
v 0.28636 1.70359 0.15435
v 0.29324 1.71579 0.18071
v 0.31713 1.71531 0.19859
v 0.34404 1.70245 0.19753
v 0.32611 1.70256 0.16135
v 0.28401 1.61005 0.21514
v 0.36654 1.61159 0.22728
v 0.35618 1.58841 0.17930
v 0.31646 1.58506 0.14245
v 0.26598 1.60311 0.13397
v 0.22835 1.63411 0.15783
v 0.22117 1.66356 0.20286
v 0.24782 1.67767 0.24799
v 0.29581 1.66985 0.27211
v 0.34270 1.64375 0.26393
v 0.43643 1.65403 0.21066
v 0.41966 1.61652 0.13303
v 0.35540 1.61111 0.07341
v 0.27372 1.64031 0.05969
v 0.21283 1.69046 0.09829
v 0.20122 1.73811 0.17115
v 0.24433 1.76095 0.24418
v 0.32199 1.74829 0.28320
v 0.39785 1.70607 0.26997
v 0.46697 1.72115 0.17163
v 0.45021 1.68365 0.09401
v 0.38595 1.67823 0.03438
v 0.30427 1.70743 0.02066
v 0.24338 1.75758 0.05926
v 0.23177 1.80523 0.13212
v 0.27488 1.82807 0.20515
v 0.35254 1.81541 0.24418
v 0.42840 1.77319 0.23094
v 0.44652 1.78732 0.12511
v 0.43616 1.76414 0.07713
v 0.39644 1.76079 0.04028
v 0.34596 1.77883 0.03180
v 0.30832 1.80983 0.05566
v 0.30115 1.83928 0.10069
v 0.32780 1.85339 0.14582
v 0.37579 1.84557 0.16994
v 0.42268 1.81948 0.16176
v 0.38286 1.82726 0.08885
v 0.22171 1.72107 0.22905
v 0.36909 1.68236 0.27784
v 0.33614 1.60996 0.31993
v 0.18876 1.64867 0.27115
v 0.24285 1.63427 0.09631
v 0.39023 1.59556 0.14510
v 0.35728 1.52316 0.18720
v 0.20990 1.56187 0.13841
v -0.05500 0.49629 -0.07638
v -0.08575 0.48008 -0.00392
v -0.16000 0.47337 0.02609
v -0.23425 0.48008 -0.00392
v -0.26500 0.49629 -0.07638
v -0.23425 0.51249 -0.14884
v -0.16000 0.51920 -0.17885
v -0.08575 0.51249 -0.14884
v -0.05500 0.78906 -0.01091
v -0.08575 0.77285 0.06155
v -0.16000 0.76614 0.09156
v -0.23425 0.77285 0.06155
v -0.26500 0.78906 -0.01091
v -0.23425 0.80526 -0.08337
v -0.16000 0.81197 -0.11338
v -0.08575 0.80526 -0.08337
v -0.16000 0.89152 0.01200
v -0.10750 0.87780 0.00893
v -0.12288 0.86969 0.04516
v -0.16000 0.86634 0.06017
v -0.19712 0.86969 0.04516
v -0.21250 0.87780 0.00893
v -0.19712 0.88590 -0.02730
v -0.16000 0.88925 -0.04230
v -0.12288 0.88590 -0.02730
v -0.06907 0.84029 0.00055
v -0.09570 0.82626 0.06329
v -0.16000 0.82045 0.08929
v -0.22430 0.82626 0.06329
v -0.25093 0.84029 0.00055
v -0.22430 0.85432 -0.06220
v -0.16000 0.86013 -0.08820
v -0.09570 0.85432 -0.06220
v -0.05500 0.78906 -0.01091
v -0.08575 0.77285 0.06155
v -0.16000 0.76614 0.09156
v -0.23425 0.77285 0.06155
v -0.26500 0.78906 -0.01091
v -0.23425 0.80526 -0.08337
v -0.16000 0.81197 -0.11338
v -0.08575 0.80526 -0.08337
v -0.06907 0.73782 -0.02237
v -0.09570 0.72379 0.04038
v -0.16000 0.71798 0.06637
v -0.22430 0.72379 0.04038
v -0.25093 0.73782 -0.02237
v -0.22430 0.75185 -0.08512
v -0.16000 0.75766 -0.11111
v -0.09570 0.75185 -0.08512
v -0.10750 0.70031 -0.03076
v -0.12288 0.69221 0.00547
v -0.16000 0.68886 0.02048
v -0.19712 0.69221 0.00547
v -0.21250 0.70031 -0.03076
v -0.19712 0.70842 -0.06698
v -0.16000 0.71177 -0.08199
v -0.12288 0.70842 -0.06698
v -0.16000 0.68659 -0.03383
v -0.16000 0.59876 -0.05347
v -0.10750 0.58503 -0.05654
v -0.12288 0.57693 -0.02031
v -0.16000 0.57357 -0.00530
v -0.19712 0.57693 -0.02031
v -0.21250 0.58503 -0.05654
v -0.19712 0.59313 -0.09276
v -0.16000 0.59648 -0.10777
v -0.12288 0.59313 -0.09276
v -0.06907 0.54752 -0.06492
v -0.09570 0.53349 -0.00217
v -0.16000 0.52768 0.02382
v -0.22430 0.53349 -0.00217
v -0.25093 0.54752 -0.06492
v -0.22430 0.56155 -0.12767
v -0.16000 0.56736 -0.15366
v -0.09570 0.56155 -0.12767
v -0.05500 0.49629 -0.07638
v -0.08575 0.48008 -0.00392
v -0.16000 0.47337 0.02609
v -0.23425 0.48008 -0.00392
v -0.26500 0.49629 -0.07638
v -0.23425 0.51249 -0.14884
v -0.16000 0.51920 -0.17885
v -0.08575 0.51249 -0.14884
v -0.06907 0.44505 -0.08784
v -0.09570 0.43102 -0.02509
v -0.16000 0.42521 0.00090
v -0.22430 0.43102 -0.02509
v -0.25093 0.44505 -0.08784
v -0.22430 0.45908 -0.15059
v -0.16000 0.46490 -0.17658
v -0.09570 0.45908 -0.15059
v -0.10750 0.40754 -0.09622
v -0.12288 0.39944 -0.06000
v -0.16000 0.39609 -0.04499
v -0.19712 0.39944 -0.06000
v -0.21250 0.40754 -0.09622
v -0.19712 0.41565 -0.13245
v -0.16000 0.41900 -0.14746
v -0.12288 0.41565 -0.13245
v -0.16000 0.39382 -0.09929
v -0.07200 0.09812 -0.06630
v -0.09777 0.10185 -0.00419
v -0.16000 0.10340 0.02154
v -0.22223 0.10185 -0.00419
v -0.24800 0.09812 -0.06630
v -0.22223 0.09439 -0.12842
v -0.16000 0.09284 -0.15415
v -0.09777 0.09439 -0.12842
v -0.07200 0.39758 -0.08429
v -0.09777 0.40131 -0.02218
v -0.16000 0.40286 0.00355
v -0.22223 0.40131 -0.02218
v -0.24800 0.39758 -0.08429
v -0.22223 0.39385 -0.14641
v -0.16000 0.39230 -0.17214
v -0.09777 0.39385 -0.14641
v -0.16000 0.48542 -0.08957
v -0.11600 0.47365 -0.08886
v -0.12889 0.47552 -0.05781
v -0.16000 0.47629 -0.04494
v -0.19111 0.47552 -0.05781
v -0.20400 0.47365 -0.08886
v -0.19111 0.47179 -0.11992
v -0.16000 0.47102 -0.13278
v -0.12889 0.47179 -0.11992
v -0.08379 0.44150 -0.08693
v -0.10611 0.44473 -0.03314
v -0.16000 0.44607 -0.01086
v -0.21389 0.44473 -0.03314
v -0.23621 0.44150 -0.08693
v -0.21389 0.43827 -0.14072
v -0.16000 0.43693 -0.16301
v -0.10611 0.43827 -0.14072
v -0.07200 0.39758 -0.08429
v -0.09777 0.40131 -0.02218
v -0.16000 0.40286 0.00355
v -0.22223 0.40131 -0.02218
v -0.24800 0.39758 -0.08429
v -0.22223 0.39385 -0.14641
v -0.16000 0.39230 -0.17214
v -0.09777 0.39385 -0.14641
v -0.08379 0.35366 -0.08166
v -0.10611 0.35689 -0.02786
v -0.16000 0.35823 -0.00558
v -0.21389 0.35689 -0.02786
v -0.23621 0.35366 -0.08166
v -0.21389 0.35043 -0.13545
v -0.16000 0.34909 -0.15773
v -0.10611 0.35043 -0.13545
v -0.11600 0.32151 -0.07972
v -0.12889 0.32337 -0.04867
v -0.16000 0.32415 -0.03580
v -0.19111 0.32337 -0.04867
v -0.20400 0.32151 -0.07972
v -0.19111 0.31964 -0.11078
v -0.16000 0.31887 -0.12364
v -0.12889 0.31964 -0.11078
v -0.16000 0.30974 -0.07902
v -0.16000 0.18596 -0.07158
v -0.11600 0.17419 -0.07087
v -0.12889 0.17606 -0.03982
v -0.16000 0.17683 -0.02695
v -0.19111 0.17606 -0.03982
v -0.20400 0.17419 -0.07087
v -0.19111 0.17233 -0.10193
v -0.16000 0.17156 -0.11480
v -0.12889 0.17233 -0.10193
v -0.08379 0.14204 -0.06894
v -0.10611 0.14527 -0.01515
v -0.16000 0.14661 0.00713
v -0.21389 0.14527 -0.01515
v -0.23621 0.14204 -0.06894
v -0.21389 0.13881 -0.12273
v -0.16000 0.13747 -0.14502
v -0.10611 0.13881 -0.12273
v -0.07200 0.09812 -0.06630
v -0.09777 0.10185 -0.00419
v -0.16000 0.10340 0.02154
v -0.22223 0.10185 -0.00419
v -0.24800 0.09812 -0.06630
v -0.22223 0.09439 -0.12842
v -0.16000 0.09284 -0.15415
v -0.09777 0.09439 -0.12842
v -0.08379 0.05420 -0.06367
v -0.10611 0.05743 -0.00987
v -0.16000 0.05877 0.01241
v -0.21389 0.05743 -0.00987
v -0.23621 0.05420 -0.06367
v -0.21389 0.05097 -0.11746
v -0.16000 0.04963 -0.13974
v -0.10611 0.05097 -0.11746
v -0.11600 0.02205 -0.06173
v -0.12889 0.02391 -0.03068
v -0.16000 0.02469 -0.01781
v -0.19111 0.02391 -0.03068
v -0.20400 0.02205 -0.06173
v -0.19111 0.02018 -0.09279
v -0.16000 0.01941 -0.10566
v -0.12889 0.02018 -0.09279
v -0.16000 0.01028 -0.06103
v -0.23500 -0.06260 -0.15683
v -0.08500 -0.06260 -0.15683
v -0.08500 0.04721 -0.16343
v -0.23500 0.04721 -0.16343
v -0.23500 -0.04461 0.14263
v -0.08500 -0.04461 0.14263
v -0.08500 0.06519 0.13603
v -0.23500 0.06519 0.13603
v -0.23000 0.01257 -0.15634
v -0.09000 0.01257 -0.15634
v -0.09000 0.17228 -0.16593
v -0.23000 0.17228 -0.16593
v -0.23000 0.02036 -0.02657
v -0.09000 0.02036 -0.02657
v -0.09000 0.18008 -0.03616
v -0.23000 0.18008 -0.03616
v 0.26500 0.49961 0.08998
v 0.23425 0.51870 0.16173
v 0.16000 0.52661 0.19145
v 0.08575 0.51870 0.16173
v 0.05500 0.49961 0.08998
v 0.08575 0.48053 0.01823
v 0.16000 0.47262 -0.01149
v 0.23425 0.48053 0.01823
v 0.26500 0.78953 0.01285
v 0.23425 0.80862 0.08460
v 0.16000 0.81652 0.11432
v 0.08575 0.80862 0.08460
v 0.05500 0.78953 0.01285
v 0.08575 0.77044 -0.05890
v 0.16000 0.76254 -0.08862
v 0.23425 0.77044 -0.05890
v 0.16000 0.89100 -0.01414
v 0.21250 0.87741 -0.01052
v 0.19712 0.88695 0.02535
v 0.16000 0.89090 0.04021
v 0.12288 0.88695 0.02535
v 0.10750 0.87741 -0.01052
v 0.12288 0.86786 -0.04640
v 0.16000 0.86391 -0.06126
v 0.19712 0.86786 -0.04640
v 0.25093 0.84027 -0.00064
v 0.22430 0.85680 0.06150
v 0.16000 0.86364 0.08723
v 0.09570 0.85680 0.06150
v 0.06907 0.84027 -0.00064
v 0.09570 0.82374 -0.06278
v 0.16000 0.81689 -0.08852
v 0.22430 0.82374 -0.06278
v 0.26500 0.78953 0.01285
v 0.23425 0.80862 0.08460
v 0.16000 0.81652 0.11432
v 0.08575 0.80862 0.08460
v 0.05500 0.78953 0.01285
v 0.08575 0.77044 -0.05890
v 0.16000 0.76254 -0.08862
v 0.23425 0.77044 -0.05890
v 0.25093 0.73880 0.02635
v 0.22430 0.75533 0.08849
v 0.16000 0.76217 0.11423
v 0.09570 0.75533 0.08849
v 0.06907 0.73880 0.02635
v 0.09570 0.72226 -0.03579
v 0.16000 0.71542 -0.06153
v 0.22430 0.72226 -0.03579
v 0.21250 0.70165 0.03623
v 0.19712 0.71120 0.07211
v 0.16000 0.71515 0.08697
v 0.12288 0.71120 0.07211
v 0.10750 0.70165 0.03623
v 0.12288 0.69211 0.00036
v 0.16000 0.68816 -0.01450
v 0.19712 0.69211 0.00036
v 0.16000 0.68806 0.03985
v 0.16000 0.60108 0.06298
v 0.21250 0.58749 0.06660
v 0.19712 0.59703 0.10248
v 0.16000 0.60099 0.11734
v 0.12288 0.59703 0.10248
v 0.10750 0.58749 0.06660
v 0.12288 0.57795 0.03073
v 0.16000 0.57399 0.01587
v 0.19712 0.57795 0.03073
v 0.25093 0.55035 0.07648
v 0.22430 0.56688 0.13862
v 0.16000 0.57373 0.16436
v 0.09570 0.56688 0.13862
v 0.06907 0.55035 0.07648
v 0.09570 0.53382 0.01434
v 0.16000 0.52697 -0.01139
v 0.22430 0.53382 0.01434
v 0.26500 0.49961 0.08998
v 0.23425 0.51870 0.16173
v 0.16000 0.52661 0.19145
v 0.08575 0.51870 0.16173
v 0.05500 0.49961 0.08998
v 0.08575 0.48053 0.01823
v 0.16000 0.47262 -0.01149
v 0.23425 0.48053 0.01823
v 0.25093 0.44888 0.10347
v 0.22430 0.46541 0.16561
v 0.16000 0.47226 0.19135
v 0.09570 0.46541 0.16561
v 0.06907 0.44888 0.10347
v 0.09570 0.43235 0.04134
v 0.16000 0.42550 0.01560
v 0.22430 0.43235 0.04134
v 0.21250 0.41174 0.11336
v 0.19712 0.42128 0.14923
v 0.16000 0.42523 0.16409
v 0.12288 0.42128 0.14923
v 0.10750 0.41174 0.11336
v 0.12288 0.40219 0.07748
v 0.16000 0.39824 0.06262
v 0.19712 0.40219 0.07748
v 0.16000 0.39814 0.11697
v 0.24800 0.16243 0.30046
v 0.22223 0.19756 0.35181
v 0.16000 0.21212 0.37309
v 0.09777 0.19756 0.35181
v 0.07200 0.16243 0.30046
v 0.09777 0.12729 0.24910
v 0.16000 0.11274 0.22783
v 0.22223 0.12729 0.24910
v 0.24800 0.41003 0.13106
v 0.22223 0.44516 0.18242
v 0.16000 0.45972 0.20369
v 0.09777 0.44516 0.18242
v 0.07200 0.41003 0.13106
v 0.09777 0.37489 0.07971
v 0.16000 0.36034 0.05843
v 0.22223 0.37489 0.07971
v 0.16000 0.48266 0.08138
v 0.20400 0.47293 0.08803
v 0.19111 0.49049 0.11371
v 0.16000 0.49777 0.12435
v 0.12889 0.49049 0.11371
v 0.11600 0.47293 0.08803
v 0.12889 0.45536 0.06235
v 0.16000 0.44808 0.05172
v 0.19111 0.45536 0.06235
v 0.23621 0.44634 0.10622
v 0.21389 0.47677 0.15070
v 0.16000 0.48937 0.16912
v 0.10611 0.47677 0.15070
v 0.08379 0.44634 0.10622
v 0.10611 0.41591 0.06174
v 0.16000 0.40331 0.04332
v 0.21389 0.41591 0.06174
v 0.24800 0.41003 0.13106
v 0.22223 0.44516 0.18242
v 0.16000 0.45972 0.20369
v 0.09777 0.44516 0.18242
v 0.07200 0.41003 0.13106
v 0.09777 0.37489 0.07971
v 0.16000 0.36034 0.05843
v 0.22223 0.37489 0.07971
v 0.23621 0.37371 0.15591
v 0.21389 0.40414 0.20038
v 0.16000 0.41674 0.21881
v 0.10611 0.40414 0.20038
v 0.08379 0.37371 0.15591
v 0.10611 0.34328 0.11143
v 0.16000 0.33068 0.09301
v 0.21389 0.34328 0.11143
v 0.20400 0.34713 0.17410
v 0.19111 0.36470 0.19977
v 0.16000 0.37197 0.21041
v 0.12889 0.36470 0.19977
v 0.11600 0.34713 0.17410
v 0.12889 0.32956 0.14842
v 0.16000 0.32228 0.13778
v 0.19111 0.32956 0.14842
v 0.16000 0.33740 0.18075
v 0.16000 0.23506 0.25077
v 0.20400 0.22533 0.25743
v 0.19111 0.24289 0.28310
v 0.16000 0.25017 0.29374
v 0.12889 0.24289 0.28310
v 0.11600 0.22533 0.25743
v 0.12889 0.20776 0.23175
v 0.16000 0.20048 0.22111
v 0.19111 0.20776 0.23175
v 0.23621 0.19874 0.27561
v 0.21389 0.22917 0.32009
v 0.16000 0.24177 0.33851
v 0.10611 0.22917 0.32009
v 0.08379 0.19874 0.27561
v 0.10611 0.16831 0.23114
v 0.16000 0.15571 0.21271
v 0.21389 0.16831 0.23114
v 0.24800 0.16243 0.30046
v 0.22223 0.19756 0.35181
v 0.16000 0.21212 0.37309
v 0.09777 0.19756 0.35181
v 0.07200 0.16243 0.30046
v 0.09777 0.12729 0.24910
v 0.16000 0.11274 0.22783
v 0.22223 0.12729 0.24910
v 0.23621 0.12611 0.32530
v 0.21389 0.15654 0.36978
v 0.16000 0.16914 0.38820
v 0.10611 0.15654 0.36978
v 0.08379 0.12611 0.32530
v 0.10611 0.09568 0.28083
v 0.16000 0.08308 0.26240
v 0.21389 0.09568 0.28083
v 0.20400 0.09953 0.34349
v 0.19111 0.11710 0.36917
v 0.16000 0.12437 0.37980
v 0.12889 0.11710 0.36917
v 0.11600 0.09953 0.34349
v 0.12889 0.08196 0.31781
v 0.16000 0.07468 0.30717
v 0.19111 0.08196 0.31781
v 0.16000 0.08980 0.35015
v 0.08500 -0.02196 0.30544
v 0.23500 -0.02196 0.30544
v 0.23500 0.06882 0.24333
v 0.08500 0.06882 0.24333
v 0.08500 0.14743 0.55304
v 0.23500 0.14743 0.55304
v 0.23500 0.23821 0.49093
v 0.08500 0.23821 0.49093
v 0.09000 0.04276 0.26722
v 0.23000 0.04276 0.26722
v 0.23000 0.17481 0.17688
v 0.09000 0.17481 0.17688
v 0.09000 0.11616 0.37452
v 0.23000 0.11616 0.37452
v 0.23000 0.24822 0.28417
v 0.09000 0.24822 0.28417
vn 0.00000 0.00000 1.00000
vn 0.00000 0.00000 1.00000
vn 0.00000 0.00000 -1.00000
vn 0.00000 0.00000 -1.00000
vn 1.00000 0.00000 0.00000
vn 1.00000 -0.00000 0.00000
vn -1.00000 0.00000 0.00000
vn -1.00000 0.00000 0.00000
vn 0.00000 1.00000 0.00000
vn 0.00000 1.00000 0.00000
vn 0.00000 -1.00000 0.00000
vn 0.00000 -1.00000 0.00000
vn 0.00000 0.00000 1.00000
vn 0.00000 0.00000 1.00000
vn 0.00000 0.00000 -1.00000
vn 0.00000 0.00000 -1.00000
vn 1.00000 0.00000 0.00000
vn 1.00000 -0.00000 0.00000
vn -1.00000 0.00000 0.00000
vn -1.00000 0.00000 0.00000
vn 0.00000 1.00000 0.00000
vn 0.00000 1.00000 0.00000
vn 0.00000 -1.00000 0.00000
vn 0.00000 -1.00000 0.00000
vn -0.32684 0.19867 0.92396
vn -0.32684 0.19867 0.92396
vn 0.32684 -0.19867 -0.92396
vn 0.32684 -0.19867 -0.92396
vn 0.94275 -0.00000 0.33349
vn 0.94275 -0.00000 0.33349
vn -0.94275 -0.00000 -0.33349
vn -0.94275 -0.00000 -0.33349
vn 0.06625 0.98007 -0.18730
vn 0.06625 0.98007 -0.18730
vn -0.06625 -0.98007 0.18730
vn -0.06625 -0.98007 0.18730
vn -0.32684 0.19867 0.92396
vn -0.32684 0.19867 0.92396
vn 0.32684 -0.19867 -0.92396
vn 0.32684 -0.19867 -0.92396
vn 0.94275 -0.00000 0.33349
vn 0.94275 -0.00000 0.33349
vn -0.94275 0.00000 -0.33349
vn -0.94275 0.00000 -0.33349
vn 0.06625 0.98007 -0.18730
vn 0.06625 0.98007 -0.18730
vn -0.06625 -0.98007 0.18730
vn -0.06625 -0.98007 0.18730
vn -0.32684 0.19867 0.92396
vn -0.32684 0.19867 0.92396
vn 0.32684 -0.19867 -0.92396
vn 0.32684 -0.19867 -0.92396
vn 0.94275 0.00000 0.33349
vn 0.94275 0.00000 0.33349
vn -0.94275 0.00000 -0.33349
vn -0.94275 -0.00000 -0.33349
vn 0.06625 0.98007 -0.18730
vn 0.06625 0.98007 -0.18730
vn -0.06625 -0.98007 0.18730
vn -0.06625 -0.98007 0.18730
vn -0.65303 -0.09933 -0.75079
vn -0.65303 -0.09933 -0.75079
vn 0.32684 -0.19867 -0.92396
vn 0.32684 -0.19867 -0.92396
vn 0.97987 -0.09933 -0.17317
vn 0.97987 -0.09933 -0.17317
vn 0.65303 0.09933 0.75079
vn 0.65303 0.09933 0.75079
vn -0.32684 0.19867 0.92396
vn -0.32684 0.19867 0.92396
vn -0.97987 0.09933 0.17317
vn -0.97987 0.09933 0.17317
vn 0.06625 0.98007 -0.18730
vn -0.06625 -0.98007 0.18730
vn 0.06625 0.98007 -0.18730
vn -0.06625 -0.98007 0.18730
vn 0.06625 0.98007 -0.18730
vn -0.06625 -0.98007 0.18730
vn 0.06625 0.98007 -0.18730
vn -0.06625 -0.98007 0.18730
vn 0.06625 0.98007 -0.18730
vn -0.06625 -0.98007 0.18730
vn 0.06625 0.98007 -0.18730
vn -0.06625 -0.98007 0.18730
vn -0.19962 0.13771 0.97015
vn -0.19962 0.13771 0.97015
vn 0.19962 -0.13771 -0.97015
vn 0.19962 -0.13771 -0.97015
vn 0.97836 -0.02694 0.20514
vn 0.97836 -0.02694 0.20514
vn -0.97836 0.02694 -0.20514
vn -0.97836 0.02694 -0.20514
vn 0.05438 0.99011 -0.12936
vn 0.05438 0.99011 -0.12936
vn -0.05438 -0.99011 0.12936
vn -0.05438 -0.99011 0.12936
vn -0.19962 0.13771 0.97015
vn -0.19962 0.13771 0.97015
vn 0.19962 -0.13771 -0.97015
vn 0.19962 -0.13771 -0.97015
vn 0.97836 -0.02694 0.20514
vn 0.97836 -0.02694 0.20514
vn -0.97836 0.02694 -0.20514
vn -0.97836 0.02694 -0.20514
vn 0.05438 0.99011 -0.12936
vn 0.05438 0.99011 -0.12936
vn -0.05438 -0.99011 0.12935
vn -0.05438 -0.99011 0.12936
vn -0.19962 0.13771 0.97015
vn -0.19962 0.13771 0.97015
vn 0.19962 -0.13771 -0.97015
vn 0.19962 -0.13771 -0.97015
vn 0.97836 -0.02694 0.20514
vn 0.97836 -0.02694 0.20514
vn -0.97836 0.02694 -0.20514
vn -0.97836 0.02694 -0.20514
vn 0.05438 0.99011 -0.12935
vn 0.05438 0.99011 -0.12935
vn -0.05438 -0.99011 0.12935
vn -0.05438 -0.99011 0.12936
vn -0.19962 0.13771 0.97015
vn -0.19962 0.13771 0.97015
vn 0.19962 -0.13771 -0.97015
vn 0.19962 -0.13771 -0.97015
vn 0.97836 -0.02694 0.20514
vn 0.97836 -0.02694 0.20514
vn -0.97836 0.02694 -0.20514
vn -0.97836 0.02694 -0.20514
vn 0.05438 0.99011 -0.12936
vn 0.05438 0.99011 -0.12935
vn -0.05438 -0.99011 0.12936
vn -0.05438 -0.99011 0.12935
vn -0.72647 -0.58700 -0.35732
vn -0.72647 -0.58700 -0.35732
vn -0.07611 -0.97008 -0.23053
vn -0.07611 -0.97008 -0.23053
vn 0.61883 -0.78490 0.03130
vn 0.61882 -0.78491 0.03130
vn 0.95126 -0.13994 0.27480
vn 0.95126 -0.13994 0.27480
vn 0.72647 0.58700 0.35732
vn 0.72647 0.58700 0.35732
vn 0.07611 0.97009 0.23053
vn 0.07611 0.97008 0.23053
vn -0.61883 0.78490 -0.03130
vn -0.61883 0.78490 -0.03130
vn -0.95126 0.13994 -0.27480
vn -0.95126 0.13994 -0.27480
vn -0.48936 -0.35403 0.79698
vn -0.30821 -0.46074 0.83230
vn -0.11464 -0.40916 0.90523
vn -0.02204 -0.22950 0.97306
vn -0.08465 -0.02702 0.99604
vn -0.26581 0.07969 0.96073
vn -0.45938 0.02811 0.88779
vn -0.55198 -0.15155 0.81997
vn -0.73639 -0.56578 0.37099
vn -0.73639 -0.56578 0.37099
vn -0.25870 -0.84715 0.46412
vn -0.25869 -0.84715 0.46412
vn 0.25174 -0.71114 0.65644
vn 0.25174 -0.71114 0.65644
vn 0.49592 -0.23740 0.83528
vn 0.49592 -0.23740 0.83528
vn 0.33081 0.29654 0.89590
vn 0.33081 0.29654 0.89590
vn -0.14688 0.57792 0.80277
vn -0.14688 0.57792 0.80277
vn -0.65732 0.44190 0.61045
vn -0.65732 0.44190 0.61045
vn -0.90150 -0.03183 0.43160
vn -0.90150 -0.03183 0.43160
vn -0.77699 -0.61747 -0.12254
vn -0.77699 -0.61747 -0.12254
vn -0.14569 -0.98933 0.00054
vn -0.14569 -0.98933 0.00054
vn 0.52888 -0.80958 0.25470
vn 0.52888 -0.80958 0.25470
vn 0.85158 -0.18351 0.49105
vn 0.85158 -0.18351 0.49105
vn 0.63337 0.52213 0.57116
vn 0.63337 0.52213 0.57116
vn 0.00207 0.89399 0.44808
vn 0.00207 0.89399 0.44808
vn -0.67250 0.71424 0.19392
vn -0.67250 0.71424 0.19392
vn -0.99520 0.08817 -0.04244
vn -0.99520 0.08817 -0.04244
vn -0.63337 -0.52213 -0.57116
vn -0.63337 -0.52213 -0.57116
vn -0.00207 -0.89399 -0.44808
vn -0.00207 -0.89399 -0.44808
vn 0.67250 -0.71424 -0.19392
vn 0.67250 -0.71424 -0.19392
vn 0.99520 -0.08817 0.04244
vn 0.99520 -0.08817 0.04244
vn 0.77699 0.61747 0.12254
vn 0.77699 0.61747 0.12254
vn 0.14569 0.98933 -0.00054
vn 0.14569 0.98933 -0.00054
vn -0.52888 0.80958 -0.25470
vn -0.52888 0.80958 -0.25470
vn -0.85158 0.18351 -0.49106
vn -0.85158 0.18351 -0.49105
vn -0.33081 -0.29654 -0.89590
vn -0.33081 -0.29654 -0.89590
vn 0.14688 -0.57792 -0.80277
vn 0.14688 -0.57792 -0.80277
vn 0.65732 -0.44190 -0.61045
vn 0.65732 -0.44190 -0.61045
vn 0.90150 0.03183 -0.43160
vn 0.90150 0.03183 -0.43160
vn 0.73638 0.56578 -0.37099
vn 0.73638 0.56578 -0.37099
vn 0.25870 0.84715 -0.46412
vn 0.25870 0.84715 -0.46412
vn -0.25174 0.71114 -0.65644
vn -0.25174 0.71114 -0.65644
vn -0.49592 0.23740 -0.83528
vn -0.49592 0.23740 -0.83528
vn 0.08465 0.02702 -0.99604
vn 0.26581 -0.07969 -0.96073
vn 0.45938 -0.02811 -0.88779
vn 0.55198 0.15154 -0.81997
vn 0.48936 0.35403 -0.79698
vn 0.30821 0.46074 -0.83230
vn 0.11464 0.40916 -0.90523
vn 0.02204 0.22950 -0.97306
vn -0.99917 -0.01593 -0.03740
vn -0.99917 -0.01593 -0.03740
vn -0.73449 0.40861 0.54182
vn -0.73449 0.40861 0.54182
vn -0.03955 0.59379 0.80365
vn -0.03955 0.59379 0.80365
vn 0.67856 0.43113 0.59471
vn 0.67856 0.43113 0.59471
vn 0.99917 0.01593 0.03740
vn 0.99917 0.01593 0.03740
vn 0.73449 -0.40861 -0.54182
vn 0.73449 -0.40860 -0.54182
vn 0.03955 -0.59379 -0.80365
vn 0.03955 -0.59379 -0.80365
vn -0.67856 -0.43113 -0.59471
vn -0.67856 -0.43113 -0.59471
vn -0.26928 0.76819 -0.58084
vn -0.19556 0.88644 -0.41950
vn -0.00198 0.93802 -0.34656
vn 0.19804 0.89272 -0.40476
vn 0.28735 0.77706 -0.56000
vn 0.21362 0.65881 -0.72134
vn 0.02005 0.60723 -0.79427
vn -0.17998 0.65253 -0.73608
vn -0.72752 0.53421 -0.43051
vn -0.72752 0.53421 -0.43051
vn -0.53311 0.84603 -0.00506
vn -0.53311 0.84603 -0.00506
vn -0.02267 0.98205 0.18725
vn -0.02266 0.98205 0.18725
vn 0.50479 0.86258 0.03378
vn 0.50479 0.86258 0.03379
vn 0.74029 0.55761 -0.37556
vn 0.74028 0.55761 -0.37557
vn 0.54587 0.24578 -0.80101
vn 0.54587 0.24578 -0.80101
vn 0.03543 0.10977 -0.99333
vn 0.03543 0.10977 -0.99333
vn -0.49202 0.22924 -0.83986
vn -0.49202 0.22924 -0.83986
vn -0.96764 0.17785 -0.17902
vn -0.96764 0.17785 -0.17902
vn -0.71071 0.58995 0.38322
vn -0.71071 0.58995 0.38322
vn -0.03613 0.76970 0.63738
vn -0.03613 0.76970 0.63738
vn 0.66093 0.61181 0.43457
vn 0.66094 0.61181 0.43457
vn 0.97216 0.20878 -0.10641
vn 0.97216 0.20878 -0.10641
vn 0.71523 -0.20332 -0.66866
vn 0.71523 -0.20332 -0.66866
vn 0.04065 -0.38307 -0.92282
vn 0.04065 -0.38308 -0.92282
vn -0.65641 -0.22519 -0.72001
vn -0.65641 -0.22519 -0.72001
vn -0.97216 -0.20878 0.10641
vn -0.97216 -0.20878 0.10641
vn -0.71523 0.20332 0.66866
vn -0.71523 0.20332 0.66866
vn -0.04065 0.38308 0.92282
vn -0.04065 0.38308 0.92282
vn 0.65641 0.22519 0.72001
vn 0.65641 0.22519 0.72001
vn 0.96764 -0.17785 0.17902
vn 0.96764 -0.17785 0.17902
vn 0.71071 -0.58995 -0.38322
vn 0.71071 -0.58995 -0.38322
vn 0.03613 -0.76970 -0.63738
vn 0.03613 -0.76970 -0.63738
vn -0.66093 -0.61181 -0.43457
vn -0.66093 -0.61181 -0.43457
vn -0.74029 -0.55761 0.37557
vn -0.74028 -0.55761 0.37557
vn -0.54587 -0.24579 0.80101
vn -0.54587 -0.24578 0.80101
vn -0.03543 -0.10977 0.99333
vn -0.03543 -0.10977 0.99333
vn 0.49202 -0.22924 0.83986
vn 0.49202 -0.22924 0.83986
vn 0.72752 -0.53421 0.43051
vn 0.72752 -0.53421 0.43051
vn 0.53310 -0.84603 0.00506
vn 0.53310 -0.84603 0.00507
vn 0.02267 -0.98205 -0.18725
vn 0.02267 -0.98205 -0.18725
vn -0.50479 -0.86258 -0.03379
vn -0.50479 -0.86258 -0.03379
vn -0.28735 -0.77706 0.56000
vn -0.21362 -0.65881 0.72134
vn -0.02005 -0.60723 0.79427
vn 0.17998 -0.65254 0.73608
vn 0.26928 -0.76819 0.58084
vn 0.19556 -0.88644 0.41949
vn 0.00199 -0.93802 0.34656
vn -0.19804 -0.89272 0.40476
vn -0.31675 0.74663 -0.58498
vn -0.25802 0.87429 -0.41114
vn -0.07440 0.94861 -0.30756
vn 0.14820 0.93482 -0.32272
vn 0.30561 0.83936 -0.44952
vn 0.32418 0.70691 -0.62863
vn 0.19523 0.59944 -0.77624
vn -0.02092 0.56724 -0.82329
vn -0.22311 0.62537 -0.74775
vn -0.81768 0.41906 -0.39469
vn -0.81768 0.41906 -0.39469
vn -0.66925 0.74169 0.04466
vn -0.66925 0.74169 0.04466
vn -0.20519 0.92952 0.30641
vn -0.20519 0.92952 0.30642
vn 0.35736 0.89466 0.26810
vn 0.35736 0.89466 0.26810
vn 0.75518 0.65342 -0.05235
vn 0.75518 0.65342 -0.05235
vn 0.80213 0.31868 -0.50501
vn 0.80213 0.31868 -0.50501
vn 0.47623 0.04707 -0.87806
vn 0.47623 0.04707 -0.87806
vn -0.07002 -0.03432 -0.99695
vn -0.07002 -0.03432 -0.99695
vn -0.58103 0.11259 -0.80606
vn -0.58103 0.11259 -0.80606
vn -0.99650 -0.04182 -0.07242
vn -0.99650 -0.04182 -0.07242
vn -0.81677 0.34884 0.45956
vn -0.81677 0.34884 0.45956
vn -0.25487 0.57626 0.77651
vn -0.25487 0.57626 0.77651
vn 0.42629 0.53405 0.73012
vn 0.42629 0.53405 0.73012
vn 0.90798 0.24195 0.34210
vn 0.90798 0.24195 0.34210
vn 0.96482 -0.16336 -0.20599
vn 0.96482 -0.16336 -0.20599
vn 0.57021 -0.49223 -0.65770
vn 0.57021 -0.49223 -0.65770
vn -0.09121 -0.59079 -0.80166
vn -0.09121 -0.59078 -0.80166
vn -0.70995 -0.41290 -0.57051
vn -0.70995 -0.41290 -0.57051
vn -0.82829 -0.48813 0.27507
vn -0.82829 -0.48813 0.27507
vn -0.67986 -0.16550 0.71442
vn -0.67986 -0.16550 0.71442
vn -0.21580 0.02233 0.97618
vn -0.21580 0.02233 0.97618
vn 0.34676 -0.01254 0.93787
vn 0.34676 -0.01254 0.93787
vn 0.74458 -0.25378 0.61741
vn 0.74458 -0.25378 0.61742
vn 0.79152 -0.58851 0.16476
vn 0.79152 -0.58851 0.16476
vn 0.46562 -0.86012 -0.20829
vn 0.46562 -0.86012 -0.20829
vn -0.08063 -0.94151 -0.32719
vn -0.08063 -0.94151 -0.32719
vn -0.59163 -0.79460 -0.13629
vn -0.59163 -0.79460 -0.13629
vn -0.33453 -0.77396 0.53765
vn -0.27580 -0.64630 0.71150
vn -0.09218 -0.57198 0.81507
vn 0.13042 -0.58578 0.79991
vn 0.28783 -0.68123 0.67311
vn 0.30640 -0.81368 0.49400
vn 0.17745 -0.92115 0.34639
vn -0.03870 -0.95336 0.29934
vn -0.24089 -0.89523 0.37488
vn 0.41891 -0.54249 -0.72816
vn 0.41891 -0.54249 -0.72816
vn -0.41891 0.54249 0.72816
vn -0.41891 0.54249 0.72816
vn 0.90798 0.24195 0.34210
vn 0.90798 0.24195 0.34210
vn -0.90798 -0.24195 -0.34210
vn -0.90798 -0.24195 -0.34210
vn -0.00941 -0.80447 0.59392
vn -0.00941 -0.80447 0.59393
vn 0.00941 0.80447 -0.59392
vn 0.00941 0.80447 -0.59393
vn -0.91247 -0.13994 -0.38447
vn -0.91247 -0.13994 -0.38447
vn -0.50087 -0.78490 -0.36477
vn -0.50087 -0.78490 -0.36477
vn 0.20414 -0.97008 -0.13139
vn 0.20414 -0.97009 -0.13139
vn 0.78956 -0.58700 0.17896
vn 0.78956 -0.58700 0.17896
vn 0.91247 0.13994 0.38447
vn 0.91247 0.13994 0.38447
vn 0.50087 0.78491 0.36477
vn 0.50087 0.78490 0.36477
vn -0.20414 0.97008 0.13139
vn -0.20414 0.97008 0.13139
vn -0.78956 0.58700 -0.17896
vn -0.78956 0.58700 -0.17896
vn -0.59472 -0.22950 0.77048
vn -0.48007 -0.40916 0.77597
vn -0.28369 -0.46074 0.84098
vn -0.12062 -0.35403 0.92742
vn -0.08639 -0.15154 0.98467
vn -0.20104 0.02811 0.97918
vn -0.39741 0.07969 0.91417
vn -0.56048 -0.02702 0.82773
vn -0.91084 -0.23740 0.33766
vn -0.91084 -0.23740 0.33766
vn -0.60851 -0.71114 0.35213
vn -0.60851 -0.71114 0.35213
vn -0.09068 -0.84715 0.52355
vn -0.09068 -0.84715 0.52355
vn 0.33932 -0.56578 0.75151
vn 0.33932 -0.56577 0.75151
vn 0.42959 -0.03183 0.90246
vn 0.42959 -0.03183 0.90246
vn 0.12727 0.44190 0.88799
vn 0.12727 0.44190 0.88799
vn -0.39056 0.57792 0.71657
vn -0.39056 0.57792 0.71657
vn -0.82056 0.29654 0.48862
vn -0.82056 0.29654 0.48862
vn -0.97094 -0.18351 -0.15364
vn -0.97094 -0.18351 -0.15364
vn -0.57140 -0.80958 -0.13451
vn -0.57140 -0.80958 -0.13451
vn 0.11295 -0.98933 0.09203
vn 0.11295 -0.98933 0.09203
vn 0.68122 -0.61747 0.39328
vn 0.68122 -0.61747 0.39328
vn 0.80052 0.08817 0.59278
vn 0.80052 0.08817 0.59278
vn 0.40098 0.71424 0.57365
vn 0.40098 0.71424 0.57365
vn -0.28336 0.89399 0.34711
vn -0.28336 0.89399 0.34711
vn -0.85163 0.52213 0.04586
vn -0.85163 0.52213 0.04586
vn -0.80052 -0.08817 -0.59278
vn -0.80052 -0.08817 -0.59278
vn -0.40098 -0.71424 -0.57365
vn -0.40098 -0.71424 -0.57365
vn 0.28336 -0.89399 -0.34711
vn 0.28336 -0.89399 -0.34711
vn 0.85163 -0.52213 -0.04586
vn 0.85163 -0.52213 -0.04586
vn 0.97094 0.18351 0.15364
vn 0.97094 0.18351 0.15364
vn 0.57140 0.80958 0.13451
vn 0.57140 0.80958 0.13451
vn -0.11295 0.98933 -0.09203
vn -0.11295 0.98933 -0.09203
vn -0.68122 0.61747 -0.39328
vn -0.68122 0.61747 -0.39328
vn -0.42960 0.03183 -0.90246
vn -0.42960 0.03183 -0.90246
vn -0.12727 -0.44190 -0.88799
vn -0.12727 -0.44190 -0.88799
vn 0.39056 -0.57792 -0.71657
vn 0.39056 -0.57792 -0.71657
vn 0.82056 -0.29654 -0.48861
vn 0.82056 -0.29654 -0.48862
vn 0.91084 0.23740 -0.33766
vn 0.91084 0.23740 -0.33766
vn 0.60851 0.71114 -0.35213
vn 0.60851 0.71114 -0.35213
vn 0.09068 0.84715 -0.52355
vn 0.09068 0.84715 -0.52355
vn -0.33932 0.56578 -0.75151
vn -0.33932 0.56578 -0.75151
vn 0.08639 0.15154 -0.98467
vn 0.20104 -0.02811 -0.97918
vn 0.39741 -0.07969 -0.91417
vn 0.56048 0.02702 -0.82773
vn 0.59472 0.22950 -0.77048
vn 0.48007 0.40916 -0.77597
vn 0.28369 0.46074 -0.84098
vn 0.12062 0.35403 -0.92742
vn -0.90158 0.43113 0.03576
vn -0.90158 0.43113 0.03576
vn -0.47458 0.59379 0.64977
vn -0.47458 0.59379 0.64976
vn 0.23042 0.40861 0.88315
vn 0.23042 0.40861 0.88315
vn 0.80045 -0.01593 0.59919
vn 0.80045 -0.01593 0.59919
vn 0.90158 -0.43113 -0.03576
vn 0.90158 -0.43113 -0.03576
vn 0.47458 -0.59379 -0.64976
vn 0.47458 -0.59379 -0.64976
vn -0.23042 -0.40861 -0.88315
vn -0.23043 -0.40861 -0.88315
vn -0.80045 0.01593 -0.59919
vn -0.80045 0.01593 -0.59919
vn 0.10052 0.89272 -0.43926
vn 0.21946 0.93802 -0.26823
vn 0.41584 0.88644 -0.20323
vn 0.57461 0.76819 -0.28232
vn 0.60278 0.65253 -0.45918
vn 0.48384 0.60723 -0.63021
vn 0.28747 0.65881 -0.69522
vn 0.12869 0.77706 -0.61613
vn -0.41376 0.86258 -0.29114
vn -0.41375 0.86258 -0.29114
vn -0.10012 0.98205 0.15985
vn -0.10012 0.98205 0.15985
vn 0.41771 0.84603 0.33128
vn 0.41771 0.84603 0.33127
vn 0.83640 0.53421 0.12271
vn 0.83640 0.53421 0.12271
vn 0.91068 0.22924 -0.34367
vn 0.91068 0.22924 -0.34367
vn 0.59705 0.10977 -0.79466
vn 0.59705 0.10977 -0.79466
vn 0.07921 0.24578 -0.96608
vn 0.07921 0.24578 -0.96608
vn -0.33947 0.55761 -0.75752
vn -0.33947 0.55761 -0.75752
vn -0.78718 0.61181 -0.07768
vn -0.78718 0.61181 -0.07768
vn -0.37269 0.76970 0.51833
vn -0.37269 0.76970 0.51833
vn 0.31166 0.58995 0.74487
vn 0.31166 0.58995 0.74487
vn 0.86498 0.17785 0.46924
vn 0.86498 0.17785 0.46924
vn 0.96315 -0.22519 -0.14711
vn 0.96315 -0.22519 -0.14711
vn 0.54866 -0.38308 -0.74312
vn 0.54866 -0.38307 -0.74312
vn -0.13569 -0.20332 -0.96966
vn -0.13569 -0.20332 -0.96966
vn -0.68901 0.20878 -0.69403
vn -0.68901 0.20878 -0.69403
vn -0.96315 0.22519 0.14711
vn -0.96315 0.22519 0.14711
vn -0.54866 0.38307 0.74312
vn -0.54866 0.38308 0.74312
vn 0.13569 0.20332 0.96966
vn 0.13569 0.20332 0.96966
vn 0.68901 -0.20878 0.69403
vn 0.68901 -0.20878 0.69403
vn 0.78718 -0.61181 0.07768
vn 0.78718 -0.61181 0.07768
vn 0.37269 -0.76970 -0.51833
vn 0.37269 -0.76970 -0.51833
vn -0.31166 -0.58995 -0.74487
vn -0.31166 -0.58995 -0.74487
vn -0.86498 -0.17785 -0.46924
vn -0.86498 -0.17785 -0.46924
vn -0.91068 -0.22924 0.34367
vn -0.91068 -0.22924 0.34367
vn -0.59705 -0.10977 0.79466
vn -0.59705 -0.10977 0.79466
vn -0.07921 -0.24578 0.96608
vn -0.07922 -0.24578 0.96608
vn 0.33947 -0.55761 0.75752
vn 0.33947 -0.55761 0.75752
vn 0.41375 -0.86258 0.29114
vn 0.41376 -0.86258 0.29114
vn 0.10012 -0.98205 -0.15986
vn 0.10012 -0.98205 -0.15985
vn -0.41771 -0.84603 -0.33127
vn -0.41771 -0.84603 -0.33127
vn -0.83640 -0.53421 -0.12271
vn -0.83640 -0.53421 -0.12271
vn -0.60278 -0.65253 0.45918
vn -0.48384 -0.60723 0.63021
vn -0.28747 -0.65881 0.69522
vn -0.12869 -0.77706 0.61613
vn -0.10052 -0.89272 0.43926
vn -0.21946 -0.93802 0.26823
vn -0.41583 -0.88644 0.20322
vn -0.57461 -0.76819 0.28232
vn 0.04841 0.89523 -0.44297
vn 0.15814 0.95336 -0.25709
vn 0.35579 0.92116 -0.15776
vn 0.54888 0.81368 -0.19146
vn 0.64706 0.68123 -0.34241
vn 0.60439 0.58578 -0.53998
vn 0.44084 0.57198 -0.69174
vn 0.23293 0.64630 -0.72666
vn 0.07795 0.77396 -0.62841
vn -0.54574 0.79460 -0.26604
vn -0.54574 0.79460 -0.26604
vn -0.26843 0.94151 0.20371
vn -0.26843 0.94151 0.20371
vn 0.23108 0.86012 0.45474
vn 0.23108 0.86012 0.45474
vn 0.71906 0.58851 0.36959
vn 0.71906 0.58851 0.36959
vn 0.96719 0.25378 -0.01190
vn 0.96719 0.25378 -0.01190
vn 0.85936 0.01254 -0.51122
vn 0.85936 0.01254 -0.51122
vn 0.44602 -0.02233 -0.89474
vn 0.44602 -0.02233 -0.89474
vn -0.07941 0.16550 -0.98301
vn -0.07941 0.16550 -0.98301
vn -0.47109 0.48813 -0.73471
vn -0.47109 0.48813 -0.73471
vn -0.91077 0.41290 -0.00280
vn -0.91077 0.41290 -0.00280
vn -0.57500 0.59078 0.56600
vn -0.57500 0.59079 0.56600
vn 0.02983 0.49223 0.86995
vn 0.02983 0.49223 0.86995
vn 0.62069 0.16336 0.76685
vn 0.62069 0.16336 0.76685
vn 0.92113 -0.24195 0.30493
vn 0.92113 -0.24195 0.30493
vn 0.79056 -0.53405 -0.29967
vn 0.79056 -0.53405 -0.29967
vn 0.29008 -0.57626 -0.76405
vn 0.29008 -0.57626 -0.76405
vn -0.34613 -0.34884 -0.87092
vn -0.34613 -0.34884 -0.87092
vn -0.82039 0.04182 -0.57028
vn -0.82039 0.04182 -0.57028
vn -0.95864 -0.11259 0.26142
vn -0.95864 -0.11259 0.26142
vn -0.68133 0.03432 0.73117
vn -0.68133 0.03432 0.73117
vn -0.18182 -0.04707 0.98221
vn -0.18182 -0.04707 0.98221
vn 0.30617 -0.31868 0.89705
vn 0.30617 -0.31868 0.89705
vn 0.55429 -0.65342 0.51556
vn 0.55429 -0.65342 0.51556
vn 0.44646 -0.89466 0.01624
vn 0.44646 -0.89466 0.01624
vn 0.03312 -0.92952 -0.36728
vn 0.03312 -0.92952 -0.36728
vn -0.49231 -0.74169 -0.45554
vn -0.49231 -0.74169 -0.45554
vn -0.88399 -0.41906 -0.20725
vn -0.88399 -0.41906 -0.20725
vn -0.64367 -0.62537 0.44114
vn -0.53394 -0.56724 0.62701
vn -0.33629 -0.59944 0.72635
vn -0.14320 -0.70691 0.69265
vn -0.04502 -0.83936 0.54170
vn -0.08769 -0.93482 0.34412
vn -0.25125 -0.94861 0.19237
vn -0.45915 -0.87429 0.15745
vn -0.61413 -0.74663 0.25569
vn 0.13213 -0.54249 -0.82961
vn 0.13213 -0.54249 -0.82961
vn -0.13213 0.54249 0.82961
vn -0.13213 0.54249 0.82961
vn 0.92113 -0.24195 0.30493
vn 0.92113 -0.24195 0.30493
vn -0.92113 0.24195 -0.30493
vn -0.92113 0.24195 -0.30493
vn -0.36614 -0.80447 0.46773
vn -0.36614 -0.80447 0.46773
vn 0.36614 0.80447 -0.46773
vn 0.36614 0.80447 -0.46773
vn -0.92388 0.08351 -0.37346
vn -0.92388 0.08351 -0.37346
vn -0.38268 0.20162 -0.90161
vn -0.38268 0.20162 -0.90161
vn 0.38268 0.20162 -0.90161
vn 0.38268 0.20162 -0.90161
vn 0.92388 0.08351 -0.37346
vn 0.92388 0.08351 -0.37346
vn 0.92388 -0.08351 0.37346
vn 0.92388 -0.08351 0.37346
vn 0.38268 -0.20162 0.90161
vn 0.38268 -0.20162 0.90161
vn -0.38268 -0.20162 0.90161
vn -0.38268 -0.20162 0.90161
vn -0.92388 -0.08351 0.37346
vn -0.92388 -0.08351 0.37346
vn -0.25734 -0.91401 -0.31362
vn -0.10660 -0.88111 -0.46073
vn 0.10660 -0.88111 -0.46073
vn 0.25734 -0.91401 -0.31362
vn 0.25734 -0.96054 -0.10557
vn 0.10660 -0.99343 0.04155
vn -0.10660 -0.99343 0.04155
vn -0.25734 -0.96054 -0.10557
vn -0.67860 -0.60090 -0.42240
vn -0.67860 -0.60090 -0.42240
vn -0.28108 -0.51415 -0.81033
vn -0.28108 -0.51415 -0.81033
vn 0.28108 -0.51415 -0.81033
vn 0.28108 -0.51415 -0.81033
vn 0.67860 -0.60090 -0.42240
vn 0.67860 -0.60090 -0.42240
vn 0.67860 -0.72358 0.12622
vn 0.67860 -0.72358 0.12622
vn 0.28109 -0.81033 0.51415
vn 0.28109 -0.81033 0.51415
vn -0.28109 -0.81033 0.51415
vn -0.28109 -0.81033 0.51415
vn -0.67860 -0.72358 0.12622
vn -0.67860 -0.72358 0.12622
vn -0.89681 -0.15344 -0.41496
vn -0.89681 -0.15344 -0.41496
vn -0.37147 -0.03880 -0.92763
vn -0.37147 -0.03880 -0.92763
vn 0.37147 -0.03880 -0.92763
vn 0.37147 -0.03880 -0.92763
vn 0.89681 -0.15344 -0.41496
vn 0.89681 -0.15344 -0.41496
vn 0.89681 -0.31557 0.31008
vn 0.89681 -0.31557 0.31008
vn 0.37147 -0.43022 0.82275
vn 0.37147 -0.43022 0.82275
vn -0.37147 -0.43022 0.82275
vn -0.37147 -0.43022 0.82275
vn -0.89681 -0.31557 0.31008
vn -0.89681 -0.31557 0.31008
vn -0.89681 0.31557 -0.31008
vn -0.89681 0.31557 -0.31008
vn -0.37147 0.43022 -0.82275
vn -0.37147 0.43022 -0.82275
vn 0.37147 0.43022 -0.82275
vn 0.37147 0.43022 -0.82275
vn 0.89681 0.31557 -0.31008
vn 0.89681 0.31557 -0.31008
vn 0.89681 0.15344 0.41496
vn 0.89681 0.15344 0.41496
vn 0.37147 0.03880 0.92763
vn 0.37147 0.03880 0.92763
vn -0.37147 0.03880 0.92763
vn -0.37147 0.03880 0.92763
vn -0.89681 0.15344 0.41496
vn -0.89681 0.15344 0.41496
vn -0.67860 0.72358 -0.12622
vn -0.67860 0.72358 -0.12622
vn -0.28108 0.81033 -0.51415
vn -0.28108 0.81033 -0.51415
vn 0.28108 0.81033 -0.51415
vn 0.28108 0.81033 -0.51415
vn 0.67860 0.72358 -0.12622
vn 0.67860 0.72358 -0.12622
vn 0.67860 0.60090 0.42240
vn 0.67860 0.60090 0.42240
vn 0.28108 0.51415 0.81033
vn 0.28108 0.51415 0.81033
vn -0.28108 0.51415 0.81033
vn -0.28108 0.51415 0.81033
vn -0.67860 0.60090 0.42240
vn -0.67860 0.60090 0.42240
vn -0.25734 0.96054 0.10557
vn -0.10659 0.99343 -0.04155
vn 0.10659 0.99343 -0.04155
vn 0.25734 0.96054 0.10557
vn 0.25734 0.91401 0.31362
vn 0.10660 0.88111 0.46073
vn -0.10660 0.88111 0.46073
vn -0.25734 0.91401 0.31362
vn -0.92388 -0.02295 -0.38199
vn -0.92388 -0.02295 -0.38199
vn -0.38268 -0.05540 -0.92222
vn -0.38268 -0.05540 -0.92222
vn 0.38268 -0.05540 -0.92222
vn 0.38268 -0.05540 -0.92222
vn 0.92388 -0.02295 -0.38199
vn 0.92388 -0.02295 -0.38199
vn 0.92388 0.02295 0.38199
vn 0.92388 0.02295 0.38199
vn 0.38268 0.05540 0.92222
vn 0.38268 0.05540 0.92222
vn -0.38268 0.05540 0.92222
vn -0.38268 0.05540 0.92222
vn -0.92388 0.02295 0.38199
vn -0.92388 0.02295 0.38199
vn -0.25734 -0.96509 -0.04881
vn -0.10660 -0.97413 -0.19929
vn 0.10660 -0.97413 -0.19929
vn 0.25734 -0.96509 -0.04881
vn 0.25734 -0.95230 0.16399
vn 0.10660 -0.94326 0.31447
vn -0.10660 -0.94326 0.31447
vn -0.25734 -0.95230 0.16399
vn -0.67860 -0.69423 -0.23989
vn -0.67860 -0.69423 -0.23989
vn -0.28108 -0.71807 -0.63669
vn -0.28108 -0.71807 -0.63669
vn 0.28108 -0.71807 -0.63669
vn 0.28108 -0.71807 -0.63669
vn 0.67860 -0.69423 -0.23989
vn 0.67860 -0.69423 -0.23989
vn 0.67860 -0.66052 0.32127
vn 0.67860 -0.66052 0.32127
vn 0.28108 -0.63669 0.71807
vn 0.28108 -0.63669 0.71807
vn -0.28108 -0.63669 0.71807
vn -0.28108 -0.63669 0.71807
vn -0.67860 -0.66052 0.32127
vn -0.67860 -0.66052 0.32127
vn -0.89681 -0.26214 -0.35639
vn -0.89681 -0.26214 -0.35639
vn -0.37147 -0.29364 -0.88079
vn -0.37147 -0.29364 -0.88079
vn 0.37147 -0.29364 -0.88079
vn 0.37147 -0.29364 -0.88079
vn 0.89681 -0.26214 -0.35639
vn 0.89681 -0.26214 -0.35639
vn 0.89681 -0.21759 0.38521
vn 0.89681 -0.21759 0.38521
vn 0.37147 -0.18609 0.90960
vn 0.37147 -0.18609 0.90960
vn -0.37147 -0.18609 0.90960
vn -0.37147 -0.18609 0.90960
vn -0.89681 -0.21759 0.38521
vn -0.89681 -0.21759 0.38521
vn -0.89681 0.21759 -0.38521
vn -0.89681 0.21759 -0.38521
vn -0.37147 0.18609 -0.90960
vn -0.37147 0.18609 -0.90960
vn 0.37147 0.18609 -0.90960
vn 0.37147 0.18609 -0.90960
vn 0.89681 0.21759 -0.38521
vn 0.89681 0.21759 -0.38521
vn 0.89681 0.26214 0.35639
vn 0.89681 0.26214 0.35639
vn 0.37147 0.29364 0.88079
vn 0.37147 0.29364 0.88079
vn -0.37147 0.29364 0.88079
vn -0.37147 0.29364 0.88079
vn -0.89681 0.26214 0.35639
vn -0.89681 0.26214 0.35639
vn -0.67860 0.66052 -0.32127
vn -0.67860 0.66052 -0.32127
vn -0.28108 0.63669 -0.71807
vn -0.28108 0.63669 -0.71807
vn 0.28108 0.63669 -0.71807
vn 0.28108 0.63669 -0.71807
vn 0.67860 0.66052 -0.32127
vn 0.67860 0.66052 -0.32127
vn 0.67860 0.69423 0.23989
vn 0.67860 0.69423 0.23989
vn 0.28108 0.71807 0.63669
vn 0.28108 0.71807 0.63669
vn -0.28108 0.71807 0.63669
vn -0.28108 0.71807 0.63669
vn -0.67860 0.69423 0.23989
vn -0.67860 0.69423 0.23989
vn -0.25735 0.95230 -0.16400
vn -0.10660 0.94326 -0.31447
vn 0.10660 0.94326 -0.31447
vn 0.25735 0.95230 -0.16400
vn 0.25735 0.96509 0.04881
vn 0.10660 0.97413 0.19929
vn -0.10660 0.97413 0.19929
vn -0.25735 0.96509 0.04881
vn -0.00000 0.05996 0.99820
vn 0.00000 0.05996 0.99820
vn -0.00000 -0.05996 -0.99820
vn 0.00000 -0.05996 -0.99820
vn 1.00000 0.00000 0.00000
vn 1.00000 0.00000 0.00000
vn -1.00000 0.00000 0.00000
vn -1.00000 0.00000 0.00000
vn 0.00000 0.99820 -0.05996
vn 0.00000 0.99820 -0.05996
vn 0.00000 -0.99820 0.05996
vn 0.00000 -0.99820 0.05996
vn -0.00000 0.05996 0.99820
vn 0.00000 0.05996 0.99820
vn -0.00000 -0.05996 -0.99820
vn 0.00000 -0.05996 -0.99820
vn 1.00000 0.00000 0.00000
vn 1.00000 0.00000 0.00000
vn -1.00000 0.00000 0.00000
vn -1.00000 0.00000 0.00000
vn 0.00000 0.99820 -0.05996
vn 0.00000 0.99820 -0.05996
vn 0.00000 -0.99820 0.05996
vn 0.00000 -0.99820 0.05996
vn -0.92388 -0.09838 -0.36982
vn -0.92388 -0.09838 -0.36982
vn -0.38268 -0.23751 -0.89283
vn -0.38268 -0.23751 -0.89283
vn 0.38268 -0.23751 -0.89283
vn 0.38268 -0.23751 -0.89283
vn 0.92388 -0.09838 -0.36982
vn 0.92388 -0.09838 -0.36982
vn 0.92388 0.09838 0.36982
vn 0.92388 0.09838 0.36982
vn 0.38268 0.23751 0.89283
vn 0.38268 0.23751 0.89283
vn -0.38268 0.23751 0.89283
vn -0.38268 0.23751 0.89283
vn -0.92388 0.09838 0.36982
vn -0.92388 0.09838 0.36982
vn -0.25734 -0.95555 0.14389
vn -0.10660 -0.99430 -0.00179
vn 0.10660 -0.99430 -0.00179
vn 0.25734 -0.95555 0.14389
vn 0.25734 -0.90074 0.34992
vn 0.10660 -0.86198 0.49560
vn -0.10660 -0.86198 0.49560
vn -0.25734 -0.90074 0.34992
vn -0.67860 -0.72805 -0.09718
vn -0.67860 -0.72805 -0.09718
vn -0.28108 -0.83025 -0.48134
vn -0.28109 -0.83024 -0.48134
vn 0.28108 -0.83025 -0.48134
vn 0.28109 -0.83025 -0.48133
vn 0.67860 -0.72805 -0.09718
vn 0.67860 -0.72805 -0.09718
vn 0.67860 -0.58353 0.44609
vn 0.67860 -0.58353 0.44609
vn 0.28108 -0.48134 0.83024
vn 0.28108 -0.48134 0.83025
vn -0.28108 -0.48134 0.83024
vn -0.28108 -0.48134 0.83025
vn -0.67860 -0.58353 0.44609
vn -0.67860 -0.58353 0.44609
vn -0.89681 -0.32772 -0.29721
vn -0.89681 -0.32772 -0.29721
vn -0.37147 -0.46277 -0.80489
vn -0.37147 -0.46277 -0.80489
vn 0.37147 -0.46277 -0.80489
vn 0.37147 -0.46277 -0.80489
vn 0.89681 -0.32772 -0.29721
vn 0.89681 -0.32772 -0.29721
vn 0.89681 -0.13672 0.42076
vn 0.89681 -0.13672 0.42076
vn 0.37147 -0.00167 0.92844
vn 0.37147 -0.00167 0.92844
vn -0.37147 -0.00167 0.92844
vn -0.37147 -0.00167 0.92844
vn -0.89681 -0.13672 0.42076
vn -0.89681 -0.13672 0.42076
vn -0.89681 0.13672 -0.42076
vn -0.89681 0.13673 -0.42076
vn -0.37147 0.00167 -0.92844
vn -0.37147 0.00167 -0.92844
vn 0.37147 0.00167 -0.92844
vn 0.37147 0.00167 -0.92844
vn 0.89681 0.13673 -0.42076
vn 0.89681 0.13673 -0.42076
vn 0.89681 0.32772 0.29721
vn 0.89681 0.32772 0.29721
vn 0.37147 0.46278 0.80489
vn 0.37147 0.46277 0.80489
vn -0.37147 0.46277 0.80489
vn -0.37147 0.46277 0.80489
vn -0.89681 0.32772 0.29721
vn -0.89681 0.32772 0.29721
vn -0.67860 0.58353 -0.44609
vn -0.67860 0.58353 -0.44609
vn -0.28108 0.48134 -0.83025
vn -0.28108 0.48134 -0.83025
vn 0.28108 0.48134 -0.83025
vn 0.28108 0.48134 -0.83025
vn 0.67860 0.58353 -0.44609
vn 0.67860 0.58353 -0.44609
vn 0.67860 0.72805 0.09718
vn 0.67860 0.72805 0.09718
vn 0.28108 0.83024 0.48134
vn 0.28108 0.83024 0.48134
vn -0.28108 0.83025 0.48134
vn -0.28109 0.83024 0.48134
vn -0.67860 0.72805 0.09718
vn -0.67860 0.72805 0.09718
vn -0.25734 0.90074 -0.34992
vn -0.10660 0.86198 -0.49560
vn 0.10660 0.86198 -0.49560
vn 0.25734 0.90074 -0.34992
vn 0.25734 0.95555 -0.14389
vn 0.10660 0.99430 0.00179
vn -0.10660 0.99430 0.00179
vn -0.25734 0.95555 -0.14389
vn -0.92388 -0.21608 -0.31584
vn -0.92388 -0.21608 -0.31584
vn -0.38268 -0.52166 -0.76251
vn -0.38268 -0.52166 -0.76251
vn 0.38268 -0.52166 -0.76251
vn 0.38268 -0.52166 -0.76251
vn 0.92388 -0.21608 -0.31584
vn 0.92388 -0.21608 -0.31584
vn 0.92388 0.21608 0.31584
vn 0.92388 0.21608 0.31584
vn 0.38268 0.52166 0.76251
vn 0.38268 0.52166 0.76251
vn -0.38268 0.52166 0.76251
vn -0.38268 0.52166 0.76251
vn -0.92388 0.21608 0.31584
vn -0.92388 0.21608 0.31584
vn -0.25734 -0.85286 0.45432
vn -0.10660 -0.93798 0.32990
vn 0.10660 -0.93798 0.32990
vn 0.25734 -0.85286 0.45432
vn 0.25734 -0.73248 0.63027
vn 0.10660 -0.64736 0.75469
vn -0.10660 -0.64736 0.75469
vn -0.25734 -0.73248 0.63027
vn -0.67860 -0.71878 0.15118
vn -0.67860 -0.71878 0.15118
vn -0.28108 -0.94324 -0.17691
vn -0.28108 -0.94324 -0.17691
vn 0.28108 -0.94324 -0.17691
vn 0.28108 -0.94324 -0.17691
vn 0.67860 -0.71878 0.15118
vn 0.67860 -0.71878 0.15118
vn 0.67860 -0.40136 0.61515
vn 0.67860 -0.40136 0.61515
vn 0.28108 -0.17691 0.94324
vn 0.28108 -0.17691 0.94324
vn -0.28108 -0.17691 0.94324
vn -0.28108 -0.17691 0.94324
vn -0.67860 -0.40136 0.61515
vn -0.67860 -0.40136 0.61515
vn -0.89681 -0.40808 -0.17090
vn -0.89681 -0.40808 -0.17090
vn -0.37147 -0.70470 -0.60449
vn -0.37147 -0.70470 -0.60449
vn 0.37147 -0.70470 -0.60449
vn 0.37147 -0.70470 -0.60449
vn 0.89681 -0.40808 -0.17090
vn 0.89681 -0.40808 -0.17090
vn 0.89681 0.01142 0.44227
vn 0.89681 0.01142 0.44227
vn 0.37147 0.30805 0.87585
vn 0.37147 0.30805 0.87585
vn -0.37147 0.30805 0.87585
vn -0.37147 0.30805 0.87585
vn -0.89681 0.01142 0.44227
vn -0.89681 0.01142 0.44227
vn -0.89681 -0.01142 -0.44227
vn -0.89681 -0.01142 -0.44227
vn -0.37147 -0.30805 -0.87585
vn -0.37147 -0.30805 -0.87585
vn 0.37147 -0.30805 -0.87585
vn 0.37147 -0.30805 -0.87585
vn 0.89681 -0.01142 -0.44227
vn 0.89681 -0.01142 -0.44227
vn 0.89681 0.40808 0.17090
vn 0.89681 0.40808 0.17090
vn 0.37147 0.70470 0.60449
vn 0.37147 0.70470 0.60449
vn -0.37147 0.70470 0.60449
vn -0.37147 0.70470 0.60449
vn -0.89681 0.40808 0.17090
vn -0.89681 0.40808 0.17090
vn -0.67860 0.40136 -0.61515
vn -0.67860 0.40136 -0.61515
vn -0.28108 0.17691 -0.94324
vn -0.28108 0.17691 -0.94324
vn 0.28108 0.17691 -0.94324
vn 0.28109 0.17691 -0.94324
vn 0.67860 0.40136 -0.61515
vn 0.67860 0.40136 -0.61515
vn 0.67860 0.71878 -0.15118
vn 0.67860 0.71878 -0.15118
vn 0.28108 0.94324 0.17691
vn 0.28108 0.94324 0.17691
vn -0.28108 0.94324 0.17691
vn -0.28108 0.94324 0.17691
vn -0.67860 0.71878 -0.15118
vn -0.67860 0.71878 -0.15118
vn -0.25734 0.73248 -0.63027
vn -0.10660 0.64736 -0.75469
vn 0.10660 0.64736 -0.75469
vn 0.25734 0.73248 -0.63027
vn 0.25735 0.85286 -0.45432
vn 0.10660 0.93798 -0.32990
vn -0.10660 0.93798 -0.32990
vn -0.25735 0.85286 -0.45432
vn -0.00000 0.56464 0.82534
vn 0.00000 0.56464 0.82534
vn -0.00000 -0.56464 -0.82534
vn 0.00000 -0.56464 -0.82534
vn 1.00000 0.00000 0.00000
vn 1.00000 0.00000 0.00000
vn -1.00000 0.00000 0.00000
vn -1.00000 0.00000 0.00000
vn 0.00000 0.82534 -0.56464
vn 0.00000 0.82534 -0.56464
vn 0.00000 -0.82534 0.56464
vn 0.00000 -0.82534 0.56464
vn -0.00000 0.56464 0.82534
vn 0.00000 0.56464 0.82534
vn -0.00000 -0.56464 -0.82534
vn 0.00000 -0.56464 -0.82534
vn 1.00000 0.00000 0.00000
vn 1.00000 0.00000 0.00000
vn -1.00000 0.00000 0.00000
vn -1.00000 0.00000 0.00000
vn 0.00000 0.82534 -0.56464
vn 0.00000 0.82534 -0.56464
vn 0.00000 -0.82534 0.56464
vn 0.00000 -0.82534 0.56464

usemtl mat_c42834
f 5//1 6//1 7//1
f 5//2 7//2 8//2
f 2//3 1//3 4//3
f 2//4 4//4 3//4
f 6//5 2//5 3//5
f 6//6 3//6 7//6
f 1//7 5//7 8//7
f 1//8 8//8 4//8
f 4//9 8//9 7//9
f 4//10 7//10 3//10
f 1//11 2//11 6//11
f 1//12 6//12 5//12

usemtl mat_f0f0f0
f 13//13 14//13 15//13
f 13//14 15//14 16//14
f 10//15 9//15 12//15
f 10//16 12//16 11//16
f 14//17 10//17 11//17
f 14//18 11//18 15//18
f 9//19 13//19 16//19
f 9//20 16//20 12//20
f 12//21 16//21 15//21
f 12//22 15//22 11//22
f 9//23 10//23 14//23
f 9//24 14//24 13//24

usemtl mat_c49676
f 21//25 22//25 23//25
f 21//26 23//26 24//26
f 18//27 17//27 20//27
f 18//28 20//28 19//28
f 22//29 18//29 19//29
f 22//30 19//30 23//30
f 17//31 21//31 24//31
f 17//32 24//32 20//32
f 20//33 24//33 23//33
f 20//34 23//34 19//34
f 17//35 18//35 22//35
f 17//36 22//36 21//36
f 29//37 30//37 31//37
f 29//38 31//38 32//38
f 26//39 25//39 28//39
f 26//40 28//40 27//40
f 30//41 26//41 27//41
f 30//42 27//42 31//42
f 25//43 29//43 32//43
f 25//44 32//44 28//44
f 28//45 32//45 31//45
f 28//46 31//46 27//46
f 25//47 26//47 30//47
f 25//48 30//48 29//48
f 59//85 60//85 61//85
f 59//86 61//86 62//86
f 56//87 55//87 58//87
f 56//88 58//88 57//88
f 60//89 56//89 57//89
f 60//90 57//90 61//90
f 55//91 59//91 62//91
f 55//92 62//92 58//92
f 58//93 62//93 61//93
f 58//94 61//94 57//94
f 55//95 56//95 60//95
f 55//96 60//96 59//96
f 87//133 88//133 96//133
f 87//134 96//134 95//134
f 88//135 89//135 97//135
f 88//136 97//136 96//136
f 89//137 90//137 98//137
f 89//138 98//138 97//138
f 90//139 91//139 99//139
f 90//140 99//140 98//140
f 91//141 92//141 100//141
f 91//142 100//142 99//142
f 92//143 93//143 101//143
f 92//144 101//144 100//144
f 93//145 94//145 102//145
f 93//146 102//146 101//146
f 94//147 87//147 95//147
f 94//148 95//148 102//148
f 103//149 104//149 105//149
f 103//150 105//150 106//150
f 103//151 106//151 107//151
f 103//152 107//152 108//152
f 103//153 108//153 109//153
f 103//154 109//154 110//154
f 103//155 110//155 111//155
f 103//156 111//156 104//156
f 104//157 112//157 113//157
f 104//158 113//158 105//158
f 105//159 113//159 114//159
f 105//160 114//160 106//160
f 106//161 114//161 115//161
f 106//162 115//162 107//162
f 107//163 115//163 116//163
f 107//164 116//164 108//164
f 108//165 116//165 117//165
f 108//166 117//166 109//166
f 109//167 117//167 118//167
f 109//168 118//168 110//168
f 110//169 118//169 119//169
f 110//170 119//170 111//170
f 111//171 119//171 112//171
f 111//172 112//172 104//172
f 112//173 120//173 121//173
f 112//174 121//174 113//174
f 113//175 121//175 122//175
f 113//176 122//176 114//176
f 114//177 122//177 123//177
f 114//178 123//178 115//178
f 115//179 123//179 124//179
f 115//180 124//180 116//180
f 116//181 124//181 125//181
f 116//182 125//182 117//182
f 117//183 125//183 126//183
f 117//184 126//184 118//184
f 118//185 126//185 127//185
f 118//186 127//186 119//186
f 119//187 127//187 120//187
f 119//188 120//188 112//188
f 162//189 170//189 171//189
f 162//190 171//190 163//190
f 163//191 171//191 172//191
f 163//192 172//192 164//192
f 164//193 172//193 173//193
f 164//194 173//194 165//194
f 165//195 173//195 174//195
f 165//196 174//196 166//196
f 166//197 174//197 175//197
f 166//198 175//198 167//198
f 167//199 175//199 176//199
f 167//200 176//200 168//200
f 168//201 176//201 177//201
f 168//202 177//202 169//202
f 169//203 177//203 170//203
f 169//204 170//204 162//204
f 170//205 178//205 179//205
f 170//206 179//206 171//206
f 171//207 179//207 180//207
f 171//208 180//208 172//208
f 172//209 180//209 181//209
f 172//210 181//210 173//210
f 173//211 181//211 182//211
f 173//212 182//212 174//212
f 174//213 182//213 183//213
f 174//214 183//214 175//214
f 175//215 183//215 184//215
f 175//216 184//216 176//216
f 176//217 184//217 185//217
f 176//218 185//218 177//218
f 177//219 185//219 178//219
f 177//220 178//220 170//220
f 186//221 179//221 178//221
f 186//222 180//222 179//222
f 186//223 181//223 180//223
f 186//224 182//224 181//224
f 186//225 183//225 182//225
f 186//226 184//226 183//226
f 186//227 185//227 184//227
f 186//228 178//228 185//228
f 187//229 188//229 196//229
f 187//230 196//230 195//230
f 188//231 189//231 197//231
f 188//232 197//232 196//232
f 189//233 190//233 198//233
f 189//234 198//234 197//234
f 190//235 191//235 199//235
f 190//236 199//236 198//236
f 191//237 192//237 200//237
f 191//238 200//238 199//238
f 192//239 193//239 201//239
f 192//240 201//240 200//240
f 193//241 194//241 202//241
f 193//242 202//242 201//242
f 194//243 187//243 195//243
f 194//244 195//244 202//244
f 203//245 204//245 205//245
f 203//246 205//246 206//246
f 203//247 206//247 207//247
f 203//248 207//248 208//248
f 203//249 208//249 209//249
f 203//250 209//250 210//250
f 203//251 210//251 211//251
f 203//252 211//252 204//252
f 204//253 212//253 213//253
f 204//254 213//254 205//254
f 205//255 213//255 214//255
f 205//256 214//256 206//256
f 206//257 214//257 215//257
f 206//258 215//258 207//258
f 207//259 215//259 216//259
f 207//260 216//260 208//260
f 208//261 216//261 217//261
f 208//262 217//262 209//262
f 209//263 217//263 218//263
f 209//264 218//264 210//264
f 210//265 218//265 219//265
f 210//266 219//266 211//266
f 211//267 219//267 212//267
f 211//268 212//268 204//268
f 212//269 220//269 221//269
f 212//270 221//270 213//270
f 213//271 221//271 222//271
f 213//272 222//272 214//272
f 214//273 222//273 223//273
f 214//274 223//274 215//274
f 215//275 223//275 224//275
f 215//276 224//276 216//276
f 216//277 224//277 225//277
f 216//278 225//278 217//278
f 217//279 225//279 226//279
f 217//280 226//280 218//280
f 218//281 226//281 227//281
f 218//282 227//282 219//282
f 219//283 227//283 220//283
f 219//284 220//284 212//284
f 262//285 270//285 271//285
f 262//286 271//286 263//286
f 263//287 271//287 272//287
f 263//288 272//288 264//288
f 264//289 272//289 273//289
f 264//290 273//290 265//290
f 265//291 273//291 274//291
f 265//292 274//292 266//292
f 266//293 274//293 275//293
f 266//294 275//294 267//294
f 267//295 275//295 276//295
f 267//296 276//296 268//296
f 268//297 276//297 277//297
f 268//298 277//298 269//298
f 269//299 277//299 270//299
f 269//300 270//300 262//300
f 270//301 278//301 279//301
f 270//302 279//302 271//302
f 271//303 279//303 280//303
f 271//304 280//304 272//304
f 272//305 280//305 281//305
f 272//306 281//306 273//306
f 273//307 281//307 282//307
f 273//308 282//308 274//308
f 274//309 282//309 283//309
f 274//310 283//310 275//310
f 275//311 283//311 284//311
f 275//312 284//312 276//312
f 276//313 284//313 285//313
f 276//314 285//314 277//314
f 277//315 285//315 278//315
f 277//316 278//316 270//316
f 286//317 279//317 278//317
f 286//318 280//318 279//318
f 286//319 281//319 280//319
f 286//320 282//320 281//320
f 286//321 283//321 282//321
f 286//322 284//322 283//322
f 286//323 285//323 284//323
f 286//324 278//324 285//324
f 333//409 334//409 342//409
f 333//410 342//410 341//410
f 334//411 335//411 343//411
f 334//412 343//412 342//412
f 335//413 336//413 344//413
f 335//414 344//414 343//414
f 336//415 337//415 345//415
f 336//416 345//416 344//416
f 337//417 338//417 346//417
f 337//418 346//418 345//418
f 338//419 339//419 347//419
f 338//420 347//420 346//420
f 339//421 340//421 348//421
f 339//422 348//422 347//422
f 340//423 333//423 341//423
f 340//424 341//424 348//424
f 349//425 350//425 351//425
f 349//426 351//426 352//426
f 349//427 352//427 353//427
f 349//428 353//428 354//428
f 349//429 354//429 355//429
f 349//430 355//430 356//430
f 349//431 356//431 357//431
f 349//432 357//432 350//432
f 350//433 358//433 359//433
f 350//434 359//434 351//434
f 351//435 359//435 360//435
f 351//436 360//436 352//436
f 352//437 360//437 361//437
f 352//438 361//438 353//438
f 353//439 361//439 362//439
f 353//440 362//440 354//440
f 354//441 362//441 363//441
f 354//442 363//442 355//442
f 355//443 363//443 364//443
f 355//444 364//444 356//444
f 356//445 364//445 365//445
f 356//446 365//446 357//446
f 357//447 365//447 358//447
f 357//448 358//448 350//448
f 358//449 366//449 367//449
f 358//450 367//450 359//450
f 359//451 367//451 368//451
f 359//452 368//452 360//452
f 360//453 368//453 369//453
f 360//454 369//454 361//454
f 361//455 369//455 370//455
f 361//456 370//456 362//456
f 362//457 370//457 371//457
f 362//458 371//458 363//458
f 363//459 371//459 372//459
f 363//460 372//460 364//460
f 364//461 372//461 373//461
f 364//462 373//462 365//462
f 365//463 373//463 366//463
f 365//464 366//464 358//464
f 408//465 416//465 417//465
f 408//466 417//466 409//466
f 409//467 417//467 418//467
f 409//468 418//468 410//468
f 410//469 418//469 419//469
f 410//470 419//470 411//470
f 411//471 419//471 420//471
f 411//472 420//472 412//472
f 412//473 420//473 421//473
f 412//474 421//474 413//474
f 413//475 421//475 422//475
f 413//476 422//476 414//476
f 414//477 422//477 423//477
f 414//478 423//478 415//478
f 415//479 423//479 416//479
f 415//480 416//480 408//480
f 416//481 424//481 425//481
f 416//482 425//482 417//482
f 417//483 425//483 426//483
f 417//484 426//484 418//484
f 418//485 426//485 427//485
f 418//486 427//486 419//486
f 419//487 427//487 428//487
f 419//488 428//488 420//488
f 420//489 428//489 429//489
f 420//490 429//490 421//490
f 421//491 429//491 430//491
f 421//492 430//492 422//492
f 422//493 430//493 431//493
f 422//494 431//494 423//494
f 423//495 431//495 424//495
f 423//496 424//496 416//496
f 432//497 425//497 424//497
f 432//498 426//498 425//498
f 432//499 427//499 426//499
f 432//500 428//500 427//500
f 432//501 429//501 428//501
f 432//502 430//502 429//502
f 432//503 431//503 430//503
f 432//504 424//504 431//504
f 433//505 434//505 442//505
f 433//506 442//506 441//506
f 434//507 435//507 443//507
f 434//508 443//508 442//508
f 435//509 436//509 444//509
f 435//510 444//510 443//510
f 436//511 437//511 445//511
f 436//512 445//512 444//512
f 437//513 438//513 446//513
f 437//514 446//514 445//514
f 438//515 439//515 447//515
f 438//516 447//516 446//516
f 439//517 440//517 448//517
f 439//518 448//518 447//518
f 440//519 433//519 441//519
f 440//520 441//520 448//520
f 449//521 450//521 451//521
f 449//522 451//522 452//522
f 449//523 452//523 453//523
f 449//524 453//524 454//524
f 449//525 454//525 455//525
f 449//526 455//526 456//526
f 449//527 456//527 457//527
f 449//528 457//528 450//528
f 450//529 458//529 459//529
f 450//530 459//530 451//530
f 451//531 459//531 460//531
f 451//532 460//532 452//532
f 452//533 460//533 461//533
f 452//534 461//534 453//534
f 453//535 461//535 462//535
f 453//536 462//536 454//536
f 454//537 462//537 463//537
f 454//538 463//538 455//538
f 455//539 463//539 464//539
f 455//540 464//540 456//540
f 456//541 464//541 465//541
f 456//542 465//542 457//542
f 457//543 465//543 458//543
f 457//544 458//544 450//544
f 458//545 466//545 467//545
f 458//546 467//546 459//546
f 459//547 467//547 468//547
f 459//548 468//548 460//548
f 460//549 468//549 469//549
f 460//550 469//550 461//550
f 461//551 469//551 470//551
f 461//552 470//552 462//552
f 462//553 470//553 471//553
f 462//554 471//554 463//554
f 463//555 471//555 472//555
f 463//556 472//556 464//556
f 464//557 472//557 473//557
f 464//558 473//558 465//558
f 465//559 473//559 466//559
f 465//560 466//560 458//560
f 508//561 516//561 517//561
f 508//562 517//562 509//562
f 509//563 517//563 518//563
f 509//564 518//564 510//564
f 510//565 518//565 519//565
f 510//566 519//566 511//566
f 511//567 519//567 520//567
f 511//568 520//568 512//568
f 512//569 520//569 521//569
f 512//570 521//570 513//570
f 513//571 521//571 522//571
f 513//572 522//572 514//572
f 514//573 522//573 523//573
f 514//574 523//574 515//574
f 515//575 523//575 516//575
f 515//576 516//576 508//576
f 516//577 524//577 525//577
f 516//578 525//578 517//578
f 517//579 525//579 526//579
f 517//580 526//580 518//580
f 518//581 526//581 527//581
f 518//582 527//582 519//582
f 519//583 527//583 528//583
f 519//584 528//584 520//584
f 520//585 528//585 529//585
f 520//586 529//586 521//586
f 521//587 529//587 530//587
f 521//588 530//588 522//588
f 522//589 530//589 531//589
f 522//590 531//590 523//590
f 523//591 531//591 524//591
f 523//592 524//592 516//592
f 532//593 525//593 524//593
f 532//594 526//594 525//594
f 532//595 527//595 526//595
f 532//596 528//596 527//596
f 532//597 529//597 528//597
f 532//598 530//598 529//598
f 532//599 531//599 530//599
f 532//600 524//600 531//600
f 579//685 580//685 588//685
f 579//686 588//686 587//686
f 580//687 581//687 589//687
f 580//688 589//688 588//688
f 581//689 582//689 590//689
f 581//690 590//690 589//690
f 582//691 583//691 591//691
f 582//692 591//692 590//692
f 583//693 584//693 592//693
f 583//694 592//694 591//694
f 584//695 585//695 593//695
f 584//696 593//696 592//696
f 585//697 586//697 594//697
f 585//698 594//698 593//698
f 586//699 579//699 587//699
f 586//700 587//700 594//700
f 595//701 596//701 597//701
f 595//702 597//702 598//702
f 595//703 598//703 599//703
f 595//704 599//704 600//704
f 595//705 600//705 601//705
f 595//706 601//706 602//706
f 595//707 602//707 603//707
f 595//708 603//708 596//708
f 596//709 604//709 605//709
f 596//710 605//710 597//710
f 597//711 605//711 606//711
f 597//712 606//712 598//712
f 598//713 606//713 607//713
f 598//714 607//714 599//714
f 599//715 607//715 608//715
f 599//716 608//716 600//716
f 600//717 608//717 609//717
f 600//718 609//718 601//718
f 601//719 609//719 610//719
f 601//720 610//720 602//720
f 602//721 610//721 611//721
f 602//722 611//722 603//722
f 603//723 611//723 604//723
f 603//724 604//724 596//724
f 604//725 612//725 613//725
f 604//726 613//726 605//726
f 605//727 613//727 614//727
f 605//728 614//728 606//728
f 606//729 614//729 615//729
f 606//730 615//730 607//730
f 607//731 615//731 616//731
f 607//732 616//732 608//732
f 608//733 616//733 617//733
f 608//734 617//734 609//734
f 609//735 617//735 618//735
f 609//736 618//736 610//736
f 610//737 618//737 619//737
f 610//738 619//738 611//738
f 611//739 619//739 612//739
f 611//740 612//740 604//740
f 654//741 662//741 663//741
f 654//742 663//742 655//742
f 655//743 663//743 664//743
f 655//744 664//744 656//744
f 656//745 664//745 665//745
f 656//746 665//746 657//746
f 657//747 665//747 666//747
f 657//748 666//748 658//748
f 658//749 666//749 667//749
f 658//750 667//750 659//750
f 659//751 667//751 668//751
f 659//752 668//752 660//752
f 660//753 668//753 669//753
f 660//754 669//754 661//754
f 661//755 669//755 662//755
f 661//756 662//756 654//756
f 662//757 670//757 671//757
f 662//758 671//758 663//758
f 663//759 671//759 672//759
f 663//760 672//760 664//760
f 664//761 672//761 673//761
f 664//762 673//762 665//762
f 665//763 673//763 674//763
f 665//764 674//764 666//764
f 666//765 674//765 675//765
f 666//766 675//766 667//766
f 667//767 675//767 676//767
f 667//768 676//768 668//768
f 668//769 676//769 677//769
f 668//770 677//770 669//770
f 669//771 677//771 670//771
f 669//772 670//772 662//772
f 678//773 671//773 670//773
f 678//774 672//774 671//774
f 678//775 673//775 672//775
f 678//776 674//776 673//776
f 678//777 675//777 674//777
f 678//778 676//778 675//778
f 678//779 677//779 676//779
f 678//780 670//780 677//780
f 679//781 680//781 688//781
f 679//782 688//782 687//782
f 680//783 681//783 689//783
f 680//784 689//784 688//784
f 681//785 682//785 690//785
f 681//786 690//786 689//786
f 682//787 683//787 691//787
f 682//788 691//788 690//788
f 683//789 684//789 692//789
f 683//790 692//790 691//790
f 684//791 685//791 693//791
f 684//792 693//792 692//792
f 685//793 686//793 694//793
f 685//794 694//794 693//794
f 686//795 679//795 687//795
f 686//796 687//796 694//796
f 695//797 696//797 697//797
f 695//798 697//798 698//798
f 695//799 698//799 699//799
f 695//800 699//800 700//800
f 695//801 700//801 701//801
f 695//802 701//802 702//802
f 695//803 702//803 703//803
f 695//804 703//804 696//804
f 696//805 704//805 705//805
f 696//806 705//806 697//806
f 697//807 705//807 706//807
f 697//808 706//808 698//808
f 698//809 706//809 707//809
f 698//810 707//810 699//810
f 699//811 707//811 708//811
f 699//812 708//812 700//812
f 700//813 708//813 709//813
f 700//814 709//814 701//814
f 701//815 709//815 710//815
f 701//816 710//816 702//816
f 702//817 710//817 711//817
f 702//818 711//818 703//818
f 703//819 711//819 704//819
f 703//820 704//820 696//820
f 704//821 712//821 713//821
f 704//822 713//822 705//822
f 705//823 713//823 714//823
f 705//824 714//824 706//824
f 706//825 714//825 715//825
f 706//826 715//826 707//826
f 707//827 715//827 716//827
f 707//828 716//828 708//828
f 708//829 716//829 717//829
f 708//830 717//830 709//830
f 709//831 717//831 718//831
f 709//832 718//832 710//832
f 710//833 718//833 719//833
f 710//834 719//834 711//834
f 711//835 719//835 712//835
f 711//836 712//836 704//836
f 754//837 762//837 763//837
f 754//838 763//838 755//838
f 755//839 763//839 764//839
f 755//840 764//840 756//840
f 756//841 764//841 765//841
f 756//842 765//842 757//842
f 757//843 765//843 766//843
f 757//844 766//844 758//844
f 758//845 766//845 767//845
f 758//846 767//846 759//846
f 759//847 767//847 768//847
f 759//848 768//848 760//848
f 760//849 768//849 769//849
f 760//850 769//850 761//850
f 761//851 769//851 762//851
f 761//852 762//852 754//852
f 762//853 770//853 771//853
f 762//854 771//854 763//854
f 763//855 771//855 772//855
f 763//856 772//856 764//856
f 764//857 772//857 773//857
f 764//858 773//858 765//858
f 765//859 773//859 774//859
f 765//860 774//860 766//860
f 766//861 774//861 775//861
f 766//862 775//862 767//862
f 767//863 775//863 776//863
f 767//864 776//864 768//864
f 768//865 776//865 777//865
f 768//866 777//866 769//866
f 769//867 777//867 770//867
f 769//868 770//868 762//868
f 778//869 771//869 770//869
f 778//870 772//870 771//870
f 778//871 773//871 772//871
f 778//872 774//872 773//872
f 778//873 775//873 774//873
f 778//874 776//874 775//874
f 778//875 777//875 776//875
f 778//876 770//876 777//876
f 795//901 796//901 804//901
f 795//902 804//902 803//902
f 796//903 797//903 805//903
f 796//904 805//904 804//904
f 797//905 798//905 806//905
f 797//906 806//906 805//906
f 798//907 799//907 807//907
f 798//908 807//908 806//908
f 799//909 800//909 808//909
f 799//910 808//910 807//910
f 800//911 801//911 809//911
f 800//912 809//912 808//912
f 801//913 802//913 810//913
f 801//914 810//914 809//914
f 802//915 795//915 803//915
f 802//916 803//916 810//916
f 811//917 812//917 813//917
f 811//918 813//918 814//918
f 811//919 814//919 815//919
f 811//920 815//920 816//920
f 811//921 816//921 817//921
f 811//922 817//922 818//922
f 811//923 818//923 819//923
f 811//924 819//924 812//924
f 812//925 820//925 821//925
f 812//926 821//926 813//926
f 813//927 821//927 822//927
f 813//928 822//928 814//928
f 814//929 822//929 823//929
f 814//930 823//930 815//930
f 815//931 823//931 824//931
f 815//932 824//932 816//932
f 816//933 824//933 825//933
f 816//934 825//934 817//934
f 817//935 825//935 826//935
f 817//936 826//936 818//936
f 818//937 826//937 827//937
f 818//938 827//938 819//938
f 819//939 827//939 820//939
f 819//940 820//940 812//940
f 820//941 828//941 829//941
f 820//942 829//942 821//942
f 821//943 829//943 830//943
f 821//944 830//944 822//944
f 822//945 830//945 831//945
f 822//946 831//946 823//946
f 823//947 831//947 832//947
f 823//948 832//948 824//948
f 824//949 832//949 833//949
f 824//950 833//950 825//950
f 825//951 833//951 834//951
f 825//952 834//952 826//952
f 826//953 834//953 835//953
f 826//954 835//954 827//954
f 827//955 835//955 828//955
f 827//956 828//956 820//956
f 870//957 878//957 879//957
f 870//958 879//958 871//958
f 871//959 879//959 880//959
f 871//960 880//960 872//960
f 872//961 880//961 881//961
f 872//962 881//962 873//962
f 873//963 881//963 882//963
f 873//964 882//964 874//964
f 874//965 882//965 883//965
f 874//966 883//966 875//966
f 875//967 883//967 884//967
f 875//968 884//968 876//968
f 876//969 884//969 885//969
f 876//970 885//970 877//970
f 877//971 885//971 878//971
f 877//972 878//972 870//972
f 878//973 886//973 887//973
f 878//974 887//974 879//974
f 879//975 887//975 888//975
f 879//976 888//976 880//976
f 880//977 888//977 889//977
f 880//978 889//978 881//978
f 881//979 889//979 890//979
f 881//980 890//980 882//980
f 882//981 890//981 891//981
f 882//982 891//982 883//982
f 883//983 891//983 892//983
f 883//984 892//984 884//984
f 884//985 892//985 893//985
f 884//986 893//986 885//986
f 885//987 893//987 886//987
f 885//988 886//988 878//988
f 894//989 887//989 886//989
f 894//990 888//990 887//990
f 894//991 889//991 888//991
f 894//992 890//992 889//992
f 894//993 891//993 890//993
f 894//994 892//994 891//994
f 894//995 893//995 892//995
f 894//996 886//996 893//996
f 895//997 896//997 904//997
f 895//998 904//998 903//998
f 896//999 897//999 905//999
f 896//1000 905//1000 904//1000
f 897//1001 898//1001 906//1001
f 897//1002 906//1002 905//1002
f 898//1003 899//1003 907//1003
f 898//1004 907//1004 906//1004
f 899//1005 900//1005 908//1005
f 899//1006 908//1006 907//1006
f 900//1007 901//1007 909//1007
f 900//1008 909//1008 908//1008
f 901//1009 902//1009 910//1009
f 901//1010 910//1010 909//1010
f 902//1011 895//1011 903//1011
f 902//1012 903//1012 910//1012
f 911//1013 912//1013 913//1013
f 911//1014 913//1014 914//1014
f 911//1015 914//1015 915//1015
f 911//1016 915//1016 916//1016
f 911//1017 916//1017 917//1017
f 911//1018 917//1018 918//1018
f 911//1019 918//1019 919//1019
f 911//1020 919//1020 912//1020
f 912//1021 920//1021 921//1021
f 912//1022 921//1022 913//1022
f 913//1023 921//1023 922//1023
f 913//1024 922//1024 914//1024
f 914//1025 922//1025 923//1025
f 914//1026 923//1026 915//1026
f 915//1027 923//1027 924//1027
f 915//1028 924//1028 916//1028
f 916//1029 924//1029 925//1029
f 916//1030 925//1030 917//1030
f 917//1031 925//1031 926//1031
f 917//1032 926//1032 918//1032
f 918//1033 926//1033 927//1033
f 918//1034 927//1034 919//1034
f 919//1035 927//1035 920//1035
f 919//1036 920//1036 912//1036
f 920//1037 928//1037 929//1037
f 920//1038 929//1038 921//1038
f 921//1039 929//1039 930//1039
f 921//1040 930//1040 922//1040
f 922//1041 930//1041 931//1041
f 922//1042 931//1042 923//1042
f 923//1043 931//1043 932//1043
f 923//1044 932//1044 924//1044
f 924//1045 932//1045 933//1045
f 924//1046 933//1046 925//1046
f 925//1047 933//1047 934//1047
f 925//1048 934//1048 926//1048
f 926//1049 934//1049 935//1049
f 926//1050 935//1050 927//1050
f 927//1051 935//1051 928//1051
f 927//1052 928//1052 920//1052
f 970//1053 978//1053 979//1053
f 970//1054 979//1054 971//1054
f 971//1055 979//1055 980//1055
f 971//1056 980//1056 972//1056
f 972//1057 980//1057 981//1057
f 972//1058 981//1058 973//1058
f 973//1059 981//1059 982//1059
f 973//1060 982//1060 974//1060
f 974//1061 982//1061 983//1061
f 974//1062 983//1062 975//1062
f 975//1063 983//1063 984//1063
f 975//1064 984//1064 976//1064
f 976//1065 984//1065 985//1065
f 976//1066 985//1066 977//1066
f 977//1067 985//1067 978//1067
f 977//1068 978//1068 970//1068
f 978//1069 986//1069 987//1069
f 978//1070 987//1070 979//1070
f 979//1071 987//1071 988//1071
f 979//1072 988//1072 980//1072
f 980//1073 988//1073 989//1073
f 980//1074 989//1074 981//1074
f 981//1075 989//1075 990//1075
f 981//1076 990//1076 982//1076
f 982//1077 990//1077 991//1077
f 982//1078 991//1078 983//1078
f 983//1079 991//1079 992//1079
f 983//1080 992//1080 984//1080
f 984//1081 992//1081 993//1081
f 984//1082 993//1082 985//1082
f 985//1083 993//1083 986//1083
f 985//1084 986//1084 978//1084
f 994//1085 987//1085 986//1085
f 994//1086 988//1086 987//1086
f 994//1087 989//1087 988//1087
f 994//1088 990//1088 989//1088
f 994//1089 991//1089 990//1089
f 994//1090 992//1090 991//1090
f 994//1091 993//1091 992//1091
f 994//1092 986//1092 993//1092

usemtl mat_b88d6e
f 37//49 38//49 39//49
f 37//50 39//50 40//50
f 34//51 33//51 36//51
f 34//52 36//52 35//52
f 38//53 34//53 35//53
f 38//54 35//54 39//54
f 33//55 37//55 40//55
f 33//56 40//56 36//56
f 36//57 40//57 39//57
f 36//58 39//58 35//58
f 33//59 34//59 38//59
f 33//60 38//60 37//60

usemtl mat_b0876a
f 41//61 42//61 48//61
f 41//62 48//62 47//62
f 42//63 43//63 49//63
f 42//64 49//64 48//64
f 43//65 44//65 50//65
f 43//66 50//66 49//66
f 44//67 45//67 51//67
f 44//68 51//68 50//68
f 45//69 46//69 52//69
f 45//70 52//70 51//70
f 46//71 41//71 47//71
f 46//72 47//72 52//72
f 53//73 42//73 41//73
f 54//74 47//74 48//74
f 53//75 43//75 42//75
f 54//76 48//76 49//76
f 53//77 44//77 43//77
f 54//78 49//78 50//78
f 53//79 45//79 44//79
f 54//80 50//80 51//80
f 53//81 46//81 45//81
f 54//82 51//82 52//82
f 53//83 41//83 46//83
f 54//84 52//84 47//84

usemtl mat_241c18
f 67//97 68//97 69//97
f 67//98 69//98 70//98
f 64//99 63//99 66//99
f 64//100 66//100 65//100
f 68//101 64//101 65//101
f 68//102 65//102 69//102
f 63//103 67//103 70//103
f 63//104 70//104 66//104
f 66//105 70//105 69//105
f 66//106 69//106 65//106
f 63//107 64//107 68//107
f 63//108 68//108 67//108

usemtl mat_1e1e22
f 75//109 76//109 77//109
f 75//110 77//110 78//110
f 72//111 71//111 74//111
f 72//112 74//112 73//112
f 76//113 72//113 73//113
f 76//114 73//114 77//114
f 71//115 75//115 78//115
f 71//116 78//116 74//116
f 74//117 78//117 77//117
f 74//118 77//118 73//118
f 71//119 72//119 76//119
f 71//120 76//120 75//120
f 83//121 84//121 85//121
f 83//122 85//122 86//122
f 80//123 79//123 82//123
f 80//124 82//124 81//124
f 84//125 80//125 81//125
f 84//126 81//126 85//126
f 79//127 83//127 86//127
f 79//128 86//128 82//128
f 82//129 86//129 85//129
f 82//130 85//130 81//130
f 79//131 80//131 84//131
f 79//132 84//132 83//132

usemtl mat_d0242e
f 287//325 288//325 289//325
f 287//326 289//326 290//326
f 287//327 290//327 291//327
f 287//328 291//328 292//328
f 287//329 292//329 293//329
f 287//330 293//330 294//330
f 287//331 294//331 295//331
f 287//332 295//332 296//332
f 287//333 296//333 288//333
f 288//334 297//334 298//334
f 288//335 298//335 289//335
f 289//336 298//336 299//336
f 289//337 299//337 290//337
f 290//338 299//338 300//338
f 290//339 300//339 291//339
f 291//340 300//340 301//340
f 291//341 301//341 292//341
f 292//342 301//342 302//342
f 292//343 302//343 293//343
f 293//344 302//344 303//344
f 293//345 303//345 294//345
f 294//346 303//346 304//346
f 294//347 304//347 295//347
f 295//348 304//348 305//348
f 295//349 305//349 296//349
f 296//350 305//350 297//350
f 296//351 297//351 288//351
f 297//352 306//352 307//352
f 297//353 307//353 298//353
f 298//354 307//354 308//354
f 298//355 308//355 299//355
f 299//356 308//356 309//356
f 299//357 309//357 300//357
f 300//358 309//358 310//358
f 300//359 310//359 301//359
f 301//360 310//360 311//360
f 301//361 311//361 302//361
f 302//362 311//362 312//362
f 302//363 312//363 303//363
f 303//364 312//364 313//364
f 303//365 313//365 304//365
f 304//366 313//366 314//366
f 304//367 314//367 305//367
f 305//368 314//368 306//368
f 305//369 306//369 297//369
f 306//370 315//370 316//370
f 306//371 316//371 307//371
f 307//372 316//372 317//372
f 307//373 317//373 308//373
f 308//374 317//374 318//374
f 308//375 318//375 309//375
f 309//376 318//376 319//376
f 309//377 319//377 310//377
f 310//378 319//378 320//378
f 310//379 320//379 311//379
f 311//380 320//380 321//380
f 311//381 321//381 312//381
f 312//382 321//382 322//382
f 312//383 322//383 313//383
f 313//384 322//384 323//384
f 313//385 323//385 314//385
f 314//386 323//386 315//386
f 314//387 315//387 306//387
f 324//388 316//388 315//388
f 324//389 317//389 316//389
f 324//390 318//390 317//390
f 324//391 319//391 318//391
f 324//392 320//392 319//392
f 324//393 321//393 320//393
f 324//394 322//394 321//394
f 324//395 323//395 322//395
f 324//396 315//396 323//396
f 533//601 534//601 535//601
f 533//602 535//602 536//602
f 533//603 536//603 537//603
f 533//604 537//604 538//604
f 533//605 538//605 539//605
f 533//606 539//606 540//606
f 533//607 540//607 541//607
f 533//608 541//608 542//608
f 533//609 542//609 534//609
f 534//610 543//610 544//610
f 534//611 544//611 535//611
f 535//612 544//612 545//612
f 535//613 545//613 536//613
f 536//614 545//614 546//614
f 536//615 546//615 537//615
f 537//616 546//616 547//616
f 537//617 547//617 538//617
f 538//618 547//618 548//618
f 538//619 548//619 539//619
f 539//620 548//620 549//620
f 539//621 549//621 540//621
f 540//622 549//622 550//622
f 540//623 550//623 541//623
f 541//624 550//624 551//624
f 541//625 551//625 542//625
f 542//626 551//626 543//626
f 542//627 543//627 534//627
f 543//628 552//628 553//628
f 543//629 553//629 544//629
f 544//630 553//630 554//630
f 544//631 554//631 545//631
f 545//632 554//632 555//632
f 545//633 555//633 546//633
f 546//634 555//634 556//634
f 546//635 556//635 547//635
f 547//636 556//636 557//636
f 547//637 557//637 548//637
f 548//638 557//638 558//638
f 548//639 558//639 549//639
f 549//640 558//640 559//640
f 549//641 559//641 550//641
f 550//642 559//642 560//642
f 550//643 560//643 551//643
f 551//644 560//644 552//644
f 551//645 552//645 543//645
f 552//646 561//646 562//646
f 552//647 562//647 553//647
f 553//648 562//648 563//648
f 553//649 563//649 554//649
f 554//650 563//650 564//650
f 554//651 564//651 555//651
f 555//652 564//652 565//652
f 555//653 565//653 556//653
f 556//654 565//654 566//654
f 556//655 566//655 557//655
f 557//656 566//656 567//656
f 557//657 567//657 558//657
f 558//658 567//658 568//658
f 558//659 568//659 559//659
f 559//660 568//660 569//660
f 559//661 569//661 560//661
f 560//662 569//662 561//662
f 560//663 561//663 552//663
f 570//664 562//664 561//664
f 570//665 563//665 562//665
f 570//666 564//666 563//666
f 570//667 565//667 564//667
f 570//668 566//668 565//668
f 570//669 567//669 566//669
f 570//670 568//670 567//670
f 570//671 569//671 568//671
f 570//672 561//672 569//672

usemtl mat_aa1d25
f 329//397 330//397 331//397
f 329//398 331//398 332//398
f 326//399 325//399 328//399
f 326//400 328//400 327//400
f 330//401 326//401 327//401
f 330//402 327//402 331//402
f 325//403 329//403 332//403
f 325//404 332//404 328//404
f 328//405 332//405 331//405
f 328//406 331//406 327//406
f 325//407 326//407 330//407
f 325//408 330//408 329//408
f 575//673 576//673 577//673
f 575//674 577//674 578//674
f 572//675 571//675 574//675
f 572//676 574//676 573//676
f 576//677 572//677 573//677
f 576//678 573//678 577//678
f 571//679 575//679 578//679
f 571//680 578//680 574//680
f 574//681 578//681 577//681
f 574//682 577//682 573//682
f 571//683 572//683 576//683
f 571//684 576//684 575//684

usemtl mat_eeeef2
f 783//877 784//877 785//877
f 783//878 785//878 786//878
f 780//879 779//879 782//879
f 780//880 782//880 781//880
f 784//881 780//881 781//881
f 784//882 781//882 785//882
f 779//883 783//883 786//883
f 779//884 786//884 782//884
f 782//885 786//885 785//885
f 782//886 785//886 781//886
f 779//887 780//887 784//887
f 779//888 784//888 783//888
f 791//889 792//889 793//889
f 791//890 793//890 794//890
f 788//891 787//891 790//891
f 788//892 790//892 789//892
f 792//893 788//893 789//893
f 792//894 789//894 793//894
f 787//895 791//895 794//895
f 787//896 794//896 790//896
f 790//897 794//897 793//897
f 790//898 793//898 789//898
f 787//899 788//899 792//899
f 787//900 792//900 791//900
f 999//1093 1000//1093 1001//1093
f 999//1094 1001//1094 1002//1094
f 996//1095 995//1095 998//1095
f 996//1096 998//1096 997//1096
f 1000//1097 996//1097 997//1097
f 1000//1098 997//1098 1001//1098
f 995//1099 999//1099 1002//1099
f 995//1100 1002//1100 998//1100
f 998//1101 1002//1101 1001//1101
f 998//1102 1001//1102 997//1102
f 995//1103 996//1103 1000//1103
f 995//1104 1000//1104 999//1104
f 1007//1105 1008//1105 1009//1105
f 1007//1106 1009//1106 1010//1106
f 1004//1107 1003//1107 1006//1107
f 1004//1108 1006//1108 1005//1108
f 1008//1109 1004//1109 1005//1109
f 1008//1110 1005//1110 1009//1110
f 1003//1111 1007//1111 1010//1111
f 1003//1112 1010//1112 1006//1112
f 1006//1113 1010//1113 1009//1113
f 1006//1114 1009//1114 1005//1114
f 1003//1115 1004//1115 1008//1115
f 1003//1116 1008//1116 1007//1116
